<svg width="99" height="22" viewBox="0 0 99 22" fill="none" xmlns="http://www.w3.org/2000/svg">
<path d="M27.064 16.2701V6.66614H32.3C32.8133 6.66614 33.2707 6.76414 33.672 6.96014C34.0827 7.15614 34.4047 7.43147 34.638 7.78614C34.8713 8.14081 34.988 8.55614 34.988 9.03214C34.988 9.39614 34.918 9.72747 34.778 10.0261C34.638 10.3248 34.4467 10.5768 34.204 10.7821C33.9707 10.9781 33.7047 11.1275 33.406 11.2301V11.2861C33.7607 11.3608 34.078 11.5055 34.358 11.7201C34.638 11.9255 34.8573 12.1915 35.016 12.5181C35.1747 12.8355 35.254 13.2041 35.254 13.6241C35.254 14.2215 35.1187 14.7161 34.848 15.1081C34.5867 15.5001 34.232 15.7941 33.784 15.9901C33.3453 16.1768 32.8507 16.2701 32.3 16.2701H27.064ZM28.884 14.7161H32.062C32.4447 14.7161 32.7573 14.6135 33 14.4081C33.252 14.1935 33.378 13.8621 33.378 13.4141C33.378 13.1528 33.3267 12.9241 33.224 12.7281C33.1213 12.5321 32.9627 12.3828 32.748 12.2801C32.5427 12.1681 32.2767 12.1121 31.95 12.1121H28.884V14.7161ZM28.884 10.5861H31.824C32.104 10.5861 32.3373 10.5348 32.524 10.4321C32.72 10.3295 32.8647 10.1895 32.958 10.0121C33.0607 9.83481 33.112 9.63881 33.112 9.42414C33.112 9.01347 33 8.71014 32.776 8.51414C32.5613 8.31814 32.2767 8.22014 31.922 8.22014H28.884V10.5861ZM36.7948 7.77214V6.14814H38.5028V7.77214H36.7948ZM36.7948 16.2701V8.90614H38.5028V16.2701H36.7948ZM42.2681 16.4381C41.8108 16.4381 41.4514 16.3495 41.1901 16.1721C40.9288 15.9855 40.7421 15.7521 40.6301 15.4721C40.5274 15.1828 40.4761 14.8888 40.4761 14.5901V10.3061H39.5941V8.90614H40.5181L40.8261 6.84814H42.1841V8.90614H43.4581V10.3061H42.1841V14.4221C42.1841 14.6181 42.2354 14.7721 42.3381 14.8841C42.4408 14.9868 42.5948 15.0381 42.8001 15.0381H43.4581V16.2141C43.3648 16.2515 43.2481 16.2841 43.1081 16.3121C42.9774 16.3495 42.8374 16.3775 42.6881 16.3961C42.5388 16.4241 42.3988 16.4381 42.2681 16.4381ZM47.7905 16.4381C47.0251 16.4381 46.3858 16.3028 45.8725 16.0321C45.3685 15.7521 44.9905 15.3275 44.7385 14.7581C44.4865 14.1888 44.3605 13.4655 44.3605 12.5881C44.3605 11.7015 44.4865 10.9781 44.7385 10.4181C44.9998 9.84881 45.3825 9.42881 45.8865 9.15814C46.3998 8.87814 47.0345 8.73814 47.7905 8.73814C48.2851 8.73814 48.7238 8.79881 49.1065 8.92014C49.4891 9.04147 49.8158 9.22814 50.0865 9.48014C50.3665 9.72281 50.5765 10.0261 50.7165 10.3901C50.8565 10.7541 50.9265 11.1788 50.9265 11.6641H49.1905C49.1905 11.3188 49.1391 11.0341 49.0365 10.8101C48.9338 10.5861 48.7751 10.4181 48.5605 10.3061C48.3551 10.1848 48.0891 10.1241 47.7625 10.1241C47.3798 10.1241 47.0671 10.2128 46.8245 10.3901C46.5818 10.5675 46.3998 10.8335 46.2785 11.1881C46.1665 11.5335 46.1105 11.9721 46.1105 12.5041V12.6861C46.1105 13.2088 46.1665 13.6475 46.2785 14.0021C46.3998 14.3568 46.5865 14.6228 46.8385 14.8001C47.0905 14.9681 47.4218 15.0521 47.8325 15.0521C48.1498 15.0521 48.4111 14.9961 48.6165 14.8841C48.8311 14.7628 48.9945 14.5855 49.1065 14.3521C49.2185 14.1188 49.2745 13.8388 49.2745 13.5121H50.9265C50.9265 13.9695 50.8565 14.3801 50.7165 14.7441C50.5765 15.1081 50.3711 15.4161 50.1005 15.6681C49.8298 15.9201 49.4985 16.1115 49.1065 16.2421C48.7238 16.3728 48.2851 16.4381 47.7905 16.4381ZM55.6567 16.4381C54.854 16.4381 54.182 16.3028 53.6407 16.0321C53.0994 15.7521 52.6934 15.3275 52.4227 14.7581C52.152 14.1888 52.0167 13.4655 52.0167 12.5881C52.0167 11.7015 52.152 10.9781 52.4227 10.4181C52.6934 9.84881 53.0994 9.42881 53.6407 9.15814C54.182 8.87814 54.854 8.73814 55.6567 8.73814C56.4687 8.73814 57.1407 8.87814 57.6727 9.15814C58.214 9.42881 58.62 9.84881 58.8907 10.4181C59.1614 10.9781 59.2967 11.7015 59.2967 12.5881C59.2967 13.4655 59.1614 14.1888 58.8907 14.7581C58.62 15.3275 58.214 15.7521 57.6727 16.0321C57.1407 16.3028 56.4687 16.4381 55.6567 16.4381ZM55.6567 15.0381C56.1047 15.0381 56.464 14.9541 56.7347 14.7861C57.0147 14.6088 57.2154 14.3475 57.3367 14.0021C57.4674 13.6475 57.5327 13.2088 57.5327 12.6861V12.4901C57.5327 11.9675 57.4674 11.5335 57.3367 11.1881C57.2154 10.8335 57.0147 10.5721 56.7347 10.4041C56.464 10.2268 56.1047 10.1381 55.6567 10.1381C55.2087 10.1381 54.8447 10.2268 54.5647 10.4041C54.294 10.5721 54.0934 10.8335 53.9627 11.1881C53.8414 11.5335 53.7807 11.9675 53.7807 12.4901V12.6861C53.7807 13.2088 53.8414 13.6475 53.9627 14.0021C54.0934 14.3475 54.294 14.6088 54.5647 14.7861C54.8447 14.9541 55.2087 15.0381 55.6567 15.0381ZM60.7479 7.77214V6.14814H62.4559V7.77214H60.7479ZM60.7479 16.2701V8.90614H62.4559V16.2701H60.7479ZM64.2752 16.2701V8.90614H65.7032L65.8432 9.88614H65.9412C66.1092 9.66214 66.3052 9.46614 66.5292 9.29814C66.7626 9.12081 67.0239 8.98547 67.3132 8.89214C67.6119 8.78947 67.9386 8.73814 68.2932 8.73814C68.7599 8.73814 69.1706 8.82214 69.5252 8.99014C69.8892 9.15814 70.1739 9.42881 70.3792 9.80214C70.5846 10.1755 70.6872 10.6748 70.6872 11.3001V16.2701H68.9652V11.6081C68.9652 11.3468 68.9326 11.1321 68.8672 10.9641C68.8112 10.7868 68.7226 10.6468 68.6012 10.5441C68.4892 10.4321 68.3492 10.3528 68.1812 10.3061C68.0132 10.2595 67.8266 10.2361 67.6212 10.2361C67.3132 10.2361 67.0332 10.3108 66.7812 10.4601C66.5386 10.6095 66.3426 10.8148 66.1932 11.0761C66.0532 11.3375 65.9832 11.6408 65.9832 11.9861V16.2701H64.2752Z" fill="#282B3A"/>
<path d="M75.0808 16.2701V8.03814H79.3288C79.8008 8.03814 80.2088 8.12214 80.5528 8.29014C80.8968 8.45014 81.1608 8.67814 81.3448 8.97414C81.5368 9.27014 81.6328 9.62214 81.6328 10.0301C81.6328 10.3421 81.5768 10.6301 81.4648 10.8941C81.3528 11.1581 81.1968 11.3781 80.9968 11.5541C80.7968 11.7301 80.5688 11.8621 80.3128 11.9501V11.9981C80.6008 12.0621 80.8608 12.1781 81.0928 12.3461C81.3248 12.5141 81.5088 12.7381 81.6448 13.0181C81.7888 13.2901 81.8608 13.6261 81.8608 14.0261C81.8608 14.5621 81.7488 14.9941 81.5248 15.3221C81.3008 15.6501 81.0008 15.8901 80.6248 16.0421C80.2488 16.1941 79.8168 16.2701 79.3288 16.2701H75.0808ZM76.2208 15.2861H79.3168C79.7248 15.2861 80.0568 15.1821 80.3128 14.9741C80.5688 14.7581 80.6968 14.4021 80.6968 13.9061C80.6968 13.6021 80.6408 13.3501 80.5288 13.1501C80.4168 12.9421 80.2528 12.7901 80.0368 12.6941C79.8208 12.5901 79.5488 12.5381 79.2208 12.5381H76.2208V15.2861ZM76.2208 11.5661H79.1128C79.3848 11.5661 79.6208 11.5141 79.8208 11.4101C80.0208 11.2981 80.1768 11.1461 80.2888 10.9541C80.4088 10.7541 80.4688 10.5301 80.4688 10.2821C80.4688 9.85014 80.3528 9.53414 80.1208 9.33414C79.8888 9.12614 79.5808 9.02214 79.1968 9.02214H76.2208V11.5661ZM85.4757 16.2701V9.03414H82.6557V8.03814H89.4597V9.03414H86.6157V16.2701H85.4757ZM93.9718 16.4141C93.1318 16.4141 92.4198 16.2621 91.8358 15.9581C91.2518 15.6461 90.8038 15.1781 90.4918 14.5541C90.1878 13.9221 90.0358 13.1221 90.0358 12.1541C90.0358 10.7221 90.3838 9.65414 91.0798 8.95014C91.7758 8.24614 92.7438 7.89414 93.9838 7.89414C94.6878 7.89414 95.3118 8.01014 95.8558 8.24214C96.3998 8.46614 96.8238 8.81014 97.1278 9.27414C97.4398 9.73014 97.5958 10.3061 97.5958 11.0021H96.4438C96.4438 10.5221 96.3398 10.1261 96.1318 9.81414C95.9318 9.50214 95.6478 9.27014 95.2798 9.11814C94.9118 8.95814 94.4798 8.87814 93.9838 8.87814C93.4078 8.87814 92.9118 8.99014 92.4958 9.21414C92.0798 9.43814 91.7638 9.78614 91.5478 10.2581C91.3318 10.7221 91.2238 11.3221 91.2238 12.0581V12.3101C91.2238 13.0381 91.3318 13.6341 91.5478 14.0981C91.7638 14.5541 92.0758 14.8901 92.4838 15.1061C92.8998 15.3221 93.3998 15.4301 93.9838 15.4301C94.4958 15.4301 94.9358 15.3541 95.3038 15.2021C95.6798 15.0501 95.9678 14.8181 96.1678 14.5061C96.3758 14.1861 96.4798 13.7861 96.4798 13.3061H97.5958C97.5958 14.0181 97.4358 14.6021 97.1158 15.0581C96.8038 15.5141 96.3758 15.8541 95.8318 16.0781C95.2878 16.3021 94.6678 16.4141 93.9718 16.4141Z" fill="#282B3A" fill-opacity="0.5"/>
<path d="M21.6684 13.661C20.1993 19.5539 14.2307 23.1402 8.33711 21.6707C2.44597 20.2015 -1.14034 14.2326 0.329434 8.34017C1.79792 2.44661 7.76649 -1.13997 13.6583 0.329158C19.5515 1.79829 23.1376 7.76788 21.6683 13.6611L21.6684 13.661H21.6684Z" fill="#F7931A"/>
<path d="M15.868 9.4242C16.087 7.96034 14.9725 7.17346 13.4485 6.64853L13.9429 4.66561L12.7358 4.36483L12.2546 6.29555C11.9372 6.21641 11.6113 6.14183 11.2875 6.0679L11.7722 4.12444L10.5659 3.82367L10.0712 5.80595C9.80865 5.74616 9.55073 5.68707 9.30049 5.62481L9.30189 5.61857L7.63732 5.2029L7.31622 6.49213C7.31622 6.49213 8.21177 6.69741 8.19289 6.71004C8.68169 6.83204 8.77008 7.15561 8.7554 7.41208L8.19225 9.6711C8.22591 9.67965 8.26957 9.69202 8.31774 9.71137C8.27747 9.70137 8.23462 9.69046 8.19015 9.67981L7.4008 12.8444C7.34106 12.9929 7.18944 13.2157 6.8477 13.1311C6.85979 13.1486 5.97038 12.9122 5.97038 12.9122L5.37109 14.2939L6.9419 14.6855C7.23412 14.7587 7.52048 14.8354 7.80249 14.9075L7.303 16.9132L8.50867 17.214L9.00332 15.2296C9.3327 15.319 9.65235 15.4015 9.96527 15.4792L9.47228 17.4543L10.6794 17.755L11.1788 15.7531C13.2372 16.1427 14.7848 15.9856 15.4363 14.1239C15.9612 12.625 15.4101 11.7604 14.3273 11.1966C15.116 11.0147 15.7101 10.4959 15.8685 9.42436L15.8681 9.42409L15.868 9.4242ZM13.1102 13.2914C12.7371 14.7904 10.2134 13.9801 9.39518 13.7769L10.058 11.1197C10.8762 11.324 13.5 11.7282 13.1102 13.2914H13.1102ZM13.4835 9.40248C13.1432 10.7659 11.0427 10.0732 10.3613 9.90337L10.9622 7.49348C11.6436 7.66333 13.8379 7.98034 13.4836 9.40248H13.4835Z" fill="white"/>
</svg>
