<svg width="15" height="17" viewBox="0 0 15 17" fill="none" xmlns="http://www.w3.org/2000/svg">
<g opacity="0.4">
<path fill-rule="evenodd" clip-rule="evenodd" d="M0.066043 5.60051C0.420219 3.61366 2.15657 2.1053 4.24521 2.1053H10.1516C12.2402 2.1053 13.9766 3.61366 14.3308 5.60051H0.066043ZM0 7.10051V12.2569C0 14.6015 1.90065 16.5021 4.24521 16.5021H10.1516C12.4962 16.5021 14.3968 14.6015 14.3968 12.2569V7.10051H0ZM3.13784 10.0537C2.72362 10.0537 2.38784 9.71792 2.38784 9.3037C2.38784 8.88949 2.72362 8.5537 3.13784 8.5537H3.87613C4.29035 8.5537 4.62613 8.88949 4.62613 9.3037C4.62613 9.71792 4.29035 10.0537 3.87613 10.0537H3.13784ZM6.07933 9.3037C6.07933 9.71792 6.41511 10.0537 6.82933 10.0537H7.56762C7.98184 10.0537 8.31762 9.71792 8.31762 9.3037C8.31762 8.88949 7.98184 8.5537 7.56762 8.5537H6.82933C6.41511 8.5537 6.07933 8.88949 6.07933 9.3037ZM10.5208 10.0537C10.1066 10.0537 9.77081 9.71792 9.77081 9.3037C9.77081 8.88949 10.1066 8.5537 10.5208 8.5537H11.2591C11.6733 8.5537 12.0091 8.88949 12.0091 9.3037C12.0091 9.71792 11.6733 10.0537 11.2591 10.0537H10.5208ZM2.38791 12.2569C2.38791 12.6711 2.72369 13.0069 3.13791 13.0069H3.8762C4.29042 13.0069 4.6262 12.6711 4.6262 12.2569C4.6262 11.8427 4.29042 11.5069 3.8762 11.5069H3.13791C2.72369 11.5069 2.38791 11.8427 2.38791 12.2569ZM6.8294 13.0069C6.41518 13.0069 6.0794 12.6711 6.0794 12.2569C6.0794 11.8427 6.41518 11.5069 6.8294 11.5069H7.56769C7.98191 11.5069 8.31769 11.8427 8.31769 12.2569C8.31769 12.6711 7.98191 13.0069 7.56769 13.0069H6.8294ZM9.77089 12.2569C9.77089 12.6711 10.1067 13.0069 10.5209 13.0069H11.2592C11.6734 13.0069 12.0092 12.6711 12.0092 12.2569C12.0092 11.8427 11.6734 11.5069 11.2592 11.5069H10.5209C10.1067 11.5069 9.77089 11.8427 9.77089 12.2569ZM10.5207 0.801575C10.1065 0.801575 9.77075 1.13736 9.77075 1.55157V3.76647C9.77075 4.18068 10.1065 4.51647 10.5207 4.51647C10.935 4.51647 11.2707 4.18068 11.2707 3.76647V1.55157C11.2707 1.13736 10.935 0.801575 10.5207 0.801575ZM3.87606 0.801575C3.46185 0.801575 3.12606 1.13736 3.12606 1.55157V3.76647C3.12606 4.18068 3.46185 4.51647 3.87606 4.51647C4.29028 4.51647 4.62606 4.18068 4.62606 3.76647V1.55157C4.62606 1.13736 4.29028 0.801575 3.87606 0.801575Z" fill="#282B3A"/>
</g>
</svg>
