<svg width="22" height="22" viewBox="0 0 22 22" fill="none" xmlns="http://www.w3.org/2000/svg">
<path fill-rule="evenodd" clip-rule="evenodd" d="M22 11C22 4.92487 17.0751 5.87285e-08 11 1.31174e-07C4.92487 2.03619e-07 5.87285e-08 4.92487 1.31174e-07 11C2.03619e-07 17.0751 4.92487 22 11 22C17.0751 22 22 17.0751 22 11ZM10.8716 9.87929C10.9705 9.77277 11.1391 9.77277 11.238 9.87929L14.0802 12.9401C14.362 13.2437 14.8366 13.2612 15.1401 12.9794C15.4437 12.6975 15.4612 12.223 15.1794 11.9194L12.3372 8.85861C11.6448 8.11299 10.4648 8.113 9.7724 8.85861L6.93019 11.9194C6.64834 12.223 6.66591 12.6975 6.96945 12.9794C7.27298 13.2612 7.74753 13.2437 8.02938 12.9401L10.8716 9.87929Z" fill="url(#paint0_linear_71_2404)"/>
<defs>
<linearGradient id="paint0_linear_71_2404" x1="11" y1="1.31174e-07" x2="11" y2="22" gradientUnits="userSpaceOnUse">
<stop stop-color="#FC4146"/>
<stop offset="1" stop-color="#FB7C4B"/>
</linearGradient>
</defs>
</svg>
