<svg width="107" height="27" viewBox="0 0 107 27" fill="none" xmlns="http://www.w3.org/2000/svg">
<path d="M25.5181 18.2701V8.66614H33.0081V10.2201H27.3381V12.5861H32.3921V14.1401H27.3381V16.7161H33.0921V18.2701H25.5181ZM34.9244 18.2701V8.66614H39.9784C40.6877 8.66614 41.2757 8.78747 41.7424 9.03014C42.209 9.27281 42.559 9.61814 42.7924 10.0661C43.0257 10.5141 43.1424 11.0415 43.1424 11.6481C43.1424 12.2735 43.0024 12.8288 42.7224 13.3141C42.4424 13.7901 42.0317 14.1495 41.4904 14.3921L43.4784 18.2701H41.4904L39.7264 14.7001H36.7444V18.2701H34.9244ZM36.7444 13.1741H39.8384C40.305 13.1741 40.6644 13.0388 40.9164 12.7681C41.1684 12.4975 41.2944 12.1241 41.2944 11.6481C41.2944 11.3401 41.2384 11.0835 41.1264 10.8781C41.0144 10.6635 40.851 10.5001 40.6364 10.3881C40.4217 10.2761 40.1557 10.2201 39.8384 10.2201H36.7444V13.1741ZM49.1191 18.4381C48.1391 18.4381 47.2991 18.2655 46.5991 17.9201C45.9085 17.5748 45.3765 17.0381 45.0031 16.3101C44.6391 15.5728 44.4571 14.6255 44.4571 13.4681C44.4571 11.7788 44.8678 10.5281 45.6891 9.71614C46.5105 8.90414 47.6538 8.49814 49.1191 8.49814C49.9125 8.49814 50.6265 8.63347 51.2611 8.90414C51.9051 9.17481 52.4138 9.58547 52.7871 10.1361C53.1698 10.6775 53.3611 11.3681 53.3611 12.2081H51.4991C51.4991 11.7415 51.3965 11.3495 51.1911 11.0321C50.9951 10.7055 50.7198 10.4581 50.3651 10.2901C50.0105 10.1221 49.6045 10.0381 49.1471 10.0381C48.5125 10.0381 47.9851 10.1641 47.5651 10.4161C47.1451 10.6588 46.8325 11.0228 46.6271 11.5081C46.4311 11.9935 46.3331 12.5955 46.3331 13.3141V13.6221C46.3331 14.3501 46.4311 14.9568 46.6271 15.4421C46.8325 15.9275 47.1405 16.2915 47.5511 16.5341C47.9711 16.7768 48.5031 16.8981 49.1471 16.8981C49.6325 16.8981 50.0571 16.8188 50.4211 16.6601C50.7851 16.4921 51.0651 16.2495 51.2611 15.9321C51.4665 15.6055 51.5691 15.2088 51.5691 14.7421H53.3611C53.3611 15.5821 53.1745 16.2775 52.8011 16.8281C52.4278 17.3695 51.9191 17.7755 51.2751 18.0461C50.6405 18.3075 49.9218 18.4381 49.1191 18.4381ZM54.631 18.2701V17.8081C54.631 17.3881 54.7057 17.0055 54.855 16.6601C55.0043 16.3148 55.205 16.0021 55.457 15.7221C55.709 15.4328 55.989 15.1621 56.297 14.9101C56.6143 14.6488 56.9317 14.4015 57.249 14.1681C57.641 13.8788 58.0097 13.5895 58.355 13.3001C58.7003 13.0015 58.9803 12.6841 59.195 12.3481C59.4097 12.0028 59.517 11.6201 59.517 11.2001C59.517 11.0041 59.4703 10.8081 59.377 10.6121C59.2837 10.4161 59.1297 10.2528 58.915 10.1221C58.7097 9.99147 58.4297 9.92614 58.075 9.92614C57.7203 9.92614 57.4263 9.98681 57.193 10.1081C56.9597 10.2201 56.7823 10.3835 56.661 10.5981C56.549 10.8128 56.493 11.0788 56.493 11.3961V11.9701H54.785C54.7757 11.9235 54.7663 11.8535 54.757 11.7601C54.7477 11.6668 54.743 11.5501 54.743 11.4101C54.743 10.7195 54.897 10.1641 55.205 9.74414C55.5223 9.31481 55.9377 9.00214 56.451 8.80614C56.9737 8.60081 57.5383 8.49814 58.145 8.49814C58.7797 8.49814 59.2977 8.59147 59.699 8.77814C60.1097 8.96481 60.427 9.20281 60.651 9.49214C60.8843 9.78147 61.043 10.0895 61.127 10.4161C61.2203 10.7428 61.267 11.0415 61.267 11.3121C61.267 11.7601 61.1877 12.1708 61.029 12.5441C60.8797 12.9081 60.6697 13.2535 60.399 13.5801C60.1283 13.8975 59.8063 14.2055 59.433 14.5041C59.069 14.7935 58.677 15.0875 58.257 15.3861C58.0423 15.5355 57.8323 15.6848 57.627 15.8341C57.4217 15.9835 57.2397 16.1328 57.081 16.2821C56.9317 16.4315 56.815 16.5808 56.731 16.7301H61.323V18.2701H54.631ZM66.0154 18.4381C65.4927 18.4381 65.0261 18.3635 64.6154 18.2141C64.2047 18.0555 63.8547 17.7895 63.5654 17.4161C63.2761 17.0428 63.0567 16.5388 62.9074 15.9041C62.7581 15.2601 62.6834 14.4481 62.6834 13.4681C62.6834 12.4881 62.7581 11.6808 62.9074 11.0461C63.0567 10.4021 63.2761 9.89347 63.5654 9.52014C63.8547 9.14681 64.2047 8.88547 64.6154 8.73614C65.0261 8.57747 65.4927 8.49814 66.0154 8.49814C66.5381 8.49814 67.0001 8.57747 67.4014 8.73614C67.8121 8.88547 68.1621 9.14681 68.4514 9.52014C68.7407 9.89347 68.9601 10.4021 69.1094 11.0461C69.2587 11.6808 69.3334 12.4881 69.3334 13.4681C69.3334 14.4481 69.2587 15.2601 69.1094 15.9041C68.9601 16.5388 68.7407 17.0428 68.4514 17.4161C68.1621 17.7895 67.8121 18.0555 67.4014 18.2141C67.0001 18.3635 66.5381 18.4381 66.0154 18.4381ZM66.0154 17.0381C66.4541 17.0381 66.7807 16.9215 66.9954 16.6881C67.2194 16.4455 67.3687 16.0908 67.4434 15.6241C67.5274 15.1481 67.5694 14.5601 67.5694 13.8601V13.1321C67.5694 12.4135 67.5274 11.8161 67.4434 11.3401C67.3687 10.8548 67.2194 10.4955 66.9954 10.2621C66.7807 10.0195 66.4541 9.89814 66.0154 9.89814C65.5861 9.89814 65.2547 10.0195 65.0214 10.2621C64.7974 10.4955 64.6434 10.8501 64.5594 11.3261C64.4847 11.7928 64.4474 12.3808 64.4474 13.0901V13.8181C64.4474 14.5275 64.4847 15.1248 64.5594 15.6101C64.6434 16.0861 64.7974 16.4455 65.0214 16.6881C65.2547 16.9215 65.5861 17.0381 66.0154 17.0381Z" fill="#282B3A"/>
<path d="M77.3299 18.4141C76.6339 18.4141 76.0339 18.3021 75.5299 18.0781C75.0259 17.8541 74.6379 17.5021 74.3659 17.0221C74.1019 16.5341 73.9699 15.9101 73.9699 15.1501V10.0381H75.1099V15.2701C75.1099 15.9901 75.3019 16.5301 75.6859 16.8901C76.0779 17.2501 76.6259 17.4301 77.3299 17.4301C78.0419 17.4301 78.5979 17.2501 78.9979 16.8901C79.3979 16.5301 79.5979 15.9901 79.5979 15.2701V10.0381H80.7259V15.1501C80.7259 15.9101 80.5899 16.5341 80.3179 17.0221C80.0459 17.5021 79.6539 17.8541 79.1419 18.0781C78.6379 18.3021 78.0339 18.4141 77.3299 18.4141ZM85.7953 18.4141C85.3473 18.4141 84.9153 18.3701 84.4993 18.2821C84.0913 18.1941 83.7273 18.0541 83.4073 17.8621C83.0873 17.6621 82.8313 17.4061 82.6393 17.0941C82.4553 16.7821 82.3633 16.3981 82.3633 15.9421C82.3633 15.9021 82.3633 15.8621 82.3633 15.8221C82.3713 15.7821 82.3753 15.7421 82.3753 15.7021H83.5273C83.5273 15.7261 83.5233 15.7661 83.5153 15.8221C83.5153 15.8701 83.5153 15.9141 83.5153 15.9541C83.5153 16.2741 83.6113 16.5461 83.8033 16.7701C83.9953 16.9941 84.2593 17.1621 84.5953 17.2741C84.9393 17.3781 85.3273 17.4301 85.7593 17.4301C85.9513 17.4301 86.1513 17.4181 86.3593 17.3941C86.5753 17.3701 86.7793 17.3301 86.9713 17.2741C87.1713 17.2101 87.3473 17.1301 87.4993 17.0341C87.6593 16.9301 87.7833 16.8061 87.8713 16.6621C87.9673 16.5101 88.0153 16.3261 88.0153 16.1101C88.0153 15.8381 87.9353 15.6141 87.7753 15.4381C87.6233 15.2541 87.4193 15.1061 87.1633 14.9941C86.9073 14.8741 86.6153 14.7701 86.2873 14.6821C85.9673 14.5861 85.6353 14.4941 85.2913 14.4061C84.9473 14.3181 84.6113 14.2181 84.2833 14.1061C83.9633 13.9861 83.6753 13.8421 83.4193 13.6741C83.1633 13.4981 82.9553 13.2821 82.7953 13.0261C82.6433 12.7701 82.5673 12.4581 82.5673 12.0901C82.5673 11.7461 82.6353 11.4381 82.7713 11.1661C82.9153 10.8941 83.1233 10.6661 83.3953 10.4821C83.6753 10.2901 84.0193 10.1461 84.4273 10.0501C84.8353 9.94614 85.3033 9.89414 85.8313 9.89414C86.2633 9.89414 86.6633 9.94214 87.0313 10.0381C87.4073 10.1261 87.7353 10.2661 88.0153 10.4581C88.3033 10.6421 88.5273 10.8781 88.6873 11.1661C88.8473 11.4541 88.9273 11.8021 88.9273 12.2101V12.3541H87.7993V12.1741C87.7993 11.9021 87.7153 11.6701 87.5473 11.4781C87.3793 11.2861 87.1473 11.1381 86.8513 11.0341C86.5633 10.9301 86.2353 10.8781 85.8673 10.8781C85.3873 10.8781 84.9873 10.9261 84.6673 11.0221C84.3473 11.1101 84.1073 11.2421 83.9473 11.4181C83.7953 11.5861 83.7193 11.7781 83.7193 11.9941C83.7193 12.2421 83.7953 12.4501 83.9473 12.6181C84.1073 12.7861 84.3153 12.9261 84.5713 13.0381C84.8273 13.1421 85.1193 13.2381 85.4473 13.3261C85.7753 13.4141 86.1073 13.5061 86.4433 13.6021C86.7873 13.6901 87.1193 13.7941 87.4393 13.9141C87.7673 14.0261 88.0593 14.1701 88.3153 14.3461C88.5793 14.5141 88.7873 14.7301 88.9393 14.9941C89.0913 15.2501 89.1673 15.5661 89.1673 15.9421C89.1673 16.5261 89.0233 17.0021 88.7353 17.3701C88.4473 17.7301 88.0513 17.9941 87.5473 18.1621C87.0433 18.3301 86.4593 18.4141 85.7953 18.4141ZM90.8455 18.2701V10.0381H93.9175C94.7815 10.0381 95.5175 10.1821 96.1255 10.4701C96.7335 10.7581 97.1975 11.2061 97.5175 11.8141C97.8455 12.4141 98.0095 13.1941 98.0095 14.1541C98.0095 15.0981 97.8455 15.8741 97.5175 16.4821C97.1975 17.0901 96.7335 17.5421 96.1255 17.8381C95.5175 18.1261 94.7815 18.2701 93.9175 18.2701H90.8455ZM91.9855 17.2861H93.8935C94.3495 17.2861 94.7575 17.2301 95.1175 17.1181C95.4775 16.9981 95.7855 16.8181 96.0415 16.5781C96.2975 16.3381 96.4895 16.0301 96.6175 15.6541C96.7535 15.2701 96.8215 14.8141 96.8215 14.2861V14.0461C96.8215 13.5021 96.7535 13.0421 96.6175 12.6661C96.4895 12.2821 96.2975 11.9701 96.0415 11.7301C95.7935 11.4901 95.4895 11.3141 95.1295 11.2021C94.7695 11.0821 94.3575 11.0221 93.8935 11.0221H91.9855V17.2861ZM101.393 18.2701V11.0341H98.5727V10.0381H105.377V11.0341H102.533V18.2701H101.393Z" fill="#282B3A" fill-opacity="0.5"/>
<g clip-path="url(#clip0_75_2490)">
<path d="M8.44689 0.270142L8.27246 0.862636V18.0539L8.44689 18.228L16.4267 13.511L8.44689 0.270142Z" fill="#343434"/>
<path d="M8.44489 0.270142L0.464844 13.511L8.44489 18.228V9.88377V0.270142Z" fill="#8C8C8C"/>
<path d="M8.44694 19.7395L8.34863 19.8594V25.9832L8.44694 26.2701L16.4317 15.025L8.44694 19.7395Z" fill="#3C3C3B"/>
<path d="M8.44489 26.2701V19.7395L0.464844 15.025L8.44489 26.2701Z" fill="#8C8C8C"/>
<path d="M8.4502 18.2277L16.43 13.5107L8.4502 9.88351V18.2277Z" fill="#141414"/>
<path d="M0.464844 13.5107L8.44489 18.2277V9.88351L0.464844 13.5107Z" fill="#393939"/>
</g>
<defs>
<clipPath id="clip0_75_2490">
<rect width="17.8747" height="26" fill="white" transform="translate(0 0.270142)"/>
</clipPath>
</defs>
</svg>
