<svg width="28" height="28" viewBox="0 0 28 28" fill="none" xmlns="http://www.w3.org/2000/svg">
<circle cx="14" cy="14" r="14" fill="url(#paint0_linear_65_2351)"/>
<path fill-rule="evenodd" clip-rule="evenodd" d="M13.9999 9.77813L14.6815 9.08073C16.5637 7.15491 19.6152 7.15491 21.4974 9.08073C23.3795 11.0066 23.3795 14.1289 21.4974 16.0547L15.3631 22.3313C14.6102 23.1017 13.3896 23.1017 12.6367 22.3313L6.50244 16.0547C4.62028 14.1289 4.62028 11.0066 6.50244 9.08073C8.38459 7.15491 11.4362 7.15491 13.3183 9.08073L13.9999 9.77813ZM18.4545 9.54546C18.0854 9.54546 17.7863 9.83037 17.7863 10.1818C17.7863 10.5333 18.0854 10.8182 18.4545 10.8182C19.0695 10.8182 19.5681 11.293 19.5681 11.8788C19.5681 12.2302 19.8673 12.5152 20.2363 12.5152C20.6053 12.5152 20.9045 12.2302 20.9045 11.8788C20.9045 10.5901 19.8076 9.54546 18.4545 9.54546Z" fill="white"/>
<defs>
<linearGradient id="paint0_linear_65_2351" x1="0" y1="14" x2="28" y2="14" gradientUnits="userSpaceOnUse">
<stop stop-color="#FC4146"/>
<stop offset="1" stop-color="#FB7C4B"/>
</linearGradient>
</defs>
</svg>
