<svg width="14" height="16" viewBox="0 0 14 16" fill="none" xmlns="http://www.w3.org/2000/svg">
<g opacity="0.4">
<path fill-rule="evenodd" clip-rule="evenodd" d="M0.75 6.76559C0.75 3.22629 3.64777 0.367004 7.21011 0.367004C10.7724 0.367004 13.6702 3.22629 13.6702 6.76559C13.6702 8.96684 12.3865 11.1394 11.026 12.7209C10.3376 13.5212 9.60683 14.1968 8.96228 14.6773C8.64052 14.9172 8.33126 15.1151 8.05211 15.2557C7.79042 15.3875 7.49158 15.5021 7.21011 15.5021C6.92864 15.5021 6.62979 15.3875 6.3681 15.2557C6.08896 15.1151 5.7797 14.9172 5.45794 14.6773C4.81338 14.1968 4.08264 13.5212 3.39417 12.7209C2.03369 11.1394 0.75 8.96684 0.75 6.76559ZM7.2104 8.67286C5.98715 8.67286 4.9955 7.68121 4.9955 6.45796C4.9955 5.23471 5.98715 4.24307 7.2104 4.24307C8.43365 4.24307 9.42529 5.23471 9.42529 6.45796C9.42529 7.68121 8.43365 8.67286 7.2104 8.67286Z" fill="#282B3A"/>
</g>
</svg>
