<svg width="28" height="28" viewBox="0 0 28 28" fill="none" xmlns="http://www.w3.org/2000/svg">
<circle cx="14" cy="14" r="14" fill="url(#paint0_linear_75_2466)"/>
<path d="M19.7273 6.25926H18.4545V5.62963C18.4545 5.46264 18.3875 5.30249 18.2682 5.18441C18.1488 5.06634 17.987 5 17.8182 5C17.6494 5 17.4875 5.06634 17.3682 5.18441C17.2489 5.30249 17.1818 5.46264 17.1818 5.62963V6.25926H14.6364V5.62963C14.6364 5.46264 14.5693 5.30249 14.45 5.18441C14.3306 5.06634 14.1688 5 14 5C13.8312 5 13.6694 5.06634 13.55 5.18441C13.4307 5.30249 13.3636 5.46264 13.3636 5.62963V6.25926H10.8182V5.62963C10.8182 5.46264 10.7511 5.30249 10.6318 5.18441C10.5125 5.06634 10.3506 5 10.1818 5C10.013 5 9.85118 5.06634 9.73184 5.18441C9.6125 5.30249 9.54545 5.46264 9.54545 5.62963V6.25926H8.27273C7.93518 6.25926 7.61146 6.39193 7.37277 6.62809C7.13409 6.86424 7 7.18454 7 7.51852V19.4815C7 20.1494 7.26818 20.79 7.74555 21.2623C8.22291 21.7347 8.87036 22 9.54545 22H18.4545C19.1296 22 19.7771 21.7347 20.2545 21.2623C20.7318 20.79 21 20.1494 21 19.4815V7.51852C21 7.18454 20.8659 6.86424 20.6272 6.62809C20.3885 6.39193 20.0648 6.25926 19.7273 6.25926V6.25926ZM16.5455 16.963H11.4545C11.2858 16.963 11.1239 16.8966 11.0046 16.7785C10.8852 16.6605 10.8182 16.5003 10.8182 16.3333C10.8182 16.1663 10.8852 16.0062 11.0046 15.8881C11.1239 15.77 11.2858 15.7037 11.4545 15.7037H16.5455C16.7142 15.7037 16.8761 15.77 16.9954 15.8881C17.1148 16.0062 17.1818 16.1663 17.1818 16.3333C17.1818 16.5003 17.1148 16.6605 16.9954 16.7785C16.8761 16.8966 16.7142 16.963 16.5455 16.963ZM16.5455 14.4444H11.4545C11.2858 14.4444 11.1239 14.3781 11.0046 14.26C10.8852 14.142 10.8182 13.9818 10.8182 13.8148C10.8182 13.6478 10.8852 13.4877 11.0046 13.3696C11.1239 13.2515 11.2858 13.1852 11.4545 13.1852H16.5455C16.7142 13.1852 16.8761 13.2515 16.9954 13.3696C17.1148 13.4877 17.1818 13.6478 17.1818 13.8148C17.1818 13.9818 17.1148 14.142 16.9954 14.26C16.8761 14.3781 16.7142 14.4444 16.5455 14.4444Z" fill="white"/>
<defs>
<linearGradient id="paint0_linear_75_2466" x1="0" y1="14" x2="28" y2="14" gradientUnits="userSpaceOnUse">
<stop stop-color="#FC4146"/>
<stop offset="1" stop-color="#FB7C4B"/>
</linearGradient>
</defs>
</svg>
