<svg width="40" height="40" viewBox="0 0 40 40" fill="none" xmlns="http://www.w3.org/2000/svg">
<circle cx="20" cy="20" r="20" fill="#005FAF"/>
<path fill-rule="evenodd" clip-rule="evenodd" d="M22.9207 18.4288C22.9207 18.2836 22.9218 18.1385 22.9229 17.9934V17.9933V17.9933V17.9933V17.9933V17.9933V17.9932V17.9932V17.9932V17.9932V17.9932V17.9932V17.9931V17.9931V17.9931V17.9931V17.9931V17.9931V17.993V17.993V17.993V17.993V17.993V17.993V17.9929V17.9929V17.9929V17.9929V17.9929V17.9929V17.9928V17.9928V17.9928V17.9928V17.9928V17.9928V17.9927V17.9927V17.9927V17.9927C22.9251 17.7029 22.9273 17.4132 22.9207 17.124C22.9127 16.8774 22.8812 16.6307 22.8498 16.3847L22.8498 16.3847L22.8377 16.2895C22.8256 16.1989 22.7961 16.1114 22.7508 16.032C22.4876 15.5591 22.302 15.0472 22.2011 14.5156C22.0252 13.7076 21.7914 12.9133 21.5016 12.1388C21.3733 11.8374 21.3129 11.5117 21.3247 11.1844C21.341 11.0644 21.3747 10.9474 21.4246 10.837C21.4486 10.7722 21.5046 10.7542 21.5815 10.7722C21.6609 10.79 21.7354 10.8251 21.7996 10.875C21.8639 10.9248 21.9163 10.9882 21.9533 11.0607C22.0853 11.3231 22.204 11.5919 22.3091 11.8662C22.3692 12.0191 22.4224 12.1768 22.4757 12.335L22.4757 12.335C22.5268 12.4868 22.5781 12.639 22.6358 12.7876C22.6863 12.9025 22.7536 13.0092 22.8357 13.1041C22.8786 13.1499 22.9338 13.1824 22.9946 13.1979C23.1136 13.2329 23.1785 13.1979 23.2215 13.0761C23.3634 12.6878 23.3024 12.3115 23.1535 11.9391C22.9417 11.407 22.5739 11.0087 22.1142 10.6723C21.6545 10.3359 21.1997 9.97356 20.762 9.59921C20.4392 9.32469 20.1624 9.00026 20.0415 8.58099C19.987 8.45093 19.9748 8.30709 20.0065 8.16971C20.0615 8.004 20.1434 7.95509 20.2873 8.04593C20.5088 8.18186 20.7208 8.3326 20.9219 8.49714C21.048 8.60261 21.1659 8.7184 21.2838 8.83421L21.2838 8.83423C21.3667 8.91572 21.4497 8.99721 21.5355 9.07513C21.9639 9.46445 22.395 9.8511 22.8287 10.2351L22.83 10.2362C23.3852 10.728 23.9394 11.2188 24.4147 11.7894C24.4544 11.8375 24.491 11.8878 24.5276 11.9381L24.5276 11.9381L24.5277 11.9381C24.5511 11.9703 24.5745 12.0024 24.5986 12.034C24.7387 12.2207 24.8109 12.4496 24.8035 12.6828C24.8035 12.8051 24.808 12.9276 24.8125 13.0501V13.0501V13.0501V13.0502V13.0502V13.0502V13.0503V13.0503V13.0503V13.0503V13.0504V13.0504V13.0504V13.0505V13.0505V13.0505V13.0506V13.0506V13.0506V13.0506V13.0507V13.0507V13.0507V13.0508V13.0508V13.0508V13.0509V13.0509V13.0509V13.0509V13.051V13.051V13.051V13.0511V13.0511V13.0511V13.0512V13.0512V13.0512V13.0512C24.8182 13.2054 24.8238 13.3595 24.8205 13.5134C24.8065 14.1236 24.7855 14.7332 24.7575 15.3422C24.7375 15.7694 24.7106 16.1957 24.6726 16.6219C24.6545 16.8253 24.6309 17.0311 24.6071 17.2379L24.6071 17.2379L24.6071 17.238L24.6071 17.238L24.6071 17.238L24.6071 17.2381L24.6071 17.2381L24.6071 17.2382L24.6071 17.2382L24.6071 17.2383L24.6071 17.2383L24.6071 17.2384L24.6071 17.2384L24.6071 17.2385L24.6071 17.2385L24.6071 17.2386L24.607 17.2386L24.607 17.2387L24.607 17.2387L24.607 17.2388L24.607 17.2388L24.607 17.2389L24.607 17.2389L24.607 17.239L24.607 17.239L24.607 17.2391L24.607 17.2391L24.607 17.2392L24.607 17.2392L24.607 17.2393L24.607 17.2393L24.607 17.2394L24.607 17.2394L24.607 17.2395L24.6069 17.2395L24.6069 17.2396L24.6069 17.2396L24.6069 17.2397L24.6069 17.2397L24.6069 17.2398C24.581 17.4656 24.5549 17.6928 24.5357 17.9197C24.5027 18.275 24.4837 18.6314 24.4677 18.9888C24.4677 19.0806 24.4477 19.1225 24.3458 19.1395C24.0097 19.2121 23.6661 19.2436 23.3224 19.2334C23.298 19.2334 23.2736 19.2314 23.2495 19.2274C22.9167 19.1405 22.9117 19.1275 22.9027 18.8091V18.4298L22.9207 18.4288ZM8 30.1742L9.02036 30.1822C9.16527 30.1822 9.22024 30.2501 9.16727 30.3918C9.15995 30.404 9.14991 30.4142 9.13795 30.4219C9.12599 30.4295 9.11242 30.4342 9.09831 30.4357C9.01781 30.4417 8.93697 30.4417 8.85647 30.4357C8.76652 30.4297 8.75653 30.4777 8.75653 30.5515V31.434C8.75653 31.5747 8.75653 31.5757 8.61961 31.5747C8.59963 31.5747 8.58177 31.5749 8.56582 31.5751H8.5658C8.49914 31.5759 8.46568 31.5763 8.44906 31.5597C8.43232 31.5431 8.43267 31.5092 8.43338 31.4413C8.43355 31.4257 8.43373 31.4084 8.43373 31.3891V30.5695C8.43373 30.4607 8.39875 30.4258 8.29482 30.4357C8.22183 30.4427 8.15279 30.4438 8.08561 30.4449H8.08557C8.0571 30.4454 8.02896 30.4458 8.001 30.4467L8 30.1742ZM15.8092 19.2186C15.898 19.2321 15.9867 19.2455 16.0754 19.2593L16.0854 19.2283C16.111 19.2283 16.1367 19.2289 16.1624 19.2294L16.1625 19.2294H16.1625H16.1625C16.2142 19.2306 16.2659 19.2317 16.3172 19.2283C16.6151 19.2084 16.707 19.1135 16.707 18.8191C16.707 18.5923 16.7061 18.3655 16.7052 18.1388L16.7052 18.1382C16.7034 17.6844 16.7017 17.2308 16.707 16.7776C16.6944 16.5167 16.7487 16.257 16.8649 16.023C17.1287 15.5628 17.2736 15.0656 17.4026 14.5565C17.4401 14.4082 17.4767 14.2596 17.5132 14.1111L17.5132 14.1109C17.6021 13.7496 17.6909 13.3884 17.7943 13.0312C17.8576 12.8127 17.9345 12.5982 18.0113 12.3837C18.0729 12.212 18.1344 12.0402 18.1891 11.8662C18.2904 11.5988 18.3167 11.3089 18.265 11.0277C18.1941 10.7242 18.0751 10.6713 17.8103 10.8879C17.6875 10.993 17.5916 11.1257 17.5305 11.2753C17.4481 11.4716 17.3781 11.6718 17.3083 11.8717L17.3083 11.8717L17.3083 11.8718L17.3083 11.8718L17.3082 11.8718L17.3082 11.8719L17.3082 11.8719L17.3082 11.872L17.3082 11.872L17.3081 11.8721L17.3081 11.8721L17.3081 11.8722L17.3081 11.8722L17.3081 11.8722C17.2612 12.0066 17.2143 12.1408 17.1637 12.2735C17.0738 12.5151 16.9778 12.7567 16.8639 12.9883C16.8156 13.0733 16.7419 13.141 16.653 13.1819C16.6289 13.1988 16.601 13.2094 16.5717 13.2126C16.5424 13.2159 16.5128 13.2117 16.4856 13.2004C16.4584 13.1892 16.4344 13.1712 16.416 13.1483C16.3976 13.1253 16.3853 13.0981 16.3802 13.0691C16.3111 12.8806 16.2878 12.6784 16.3122 12.4792C16.3966 11.8562 16.7189 11.2899 17.2117 10.8989C17.4385 10.7167 17.6704 10.54 17.9023 10.3634C18.1341 10.1867 18.366 10.01 18.5928 9.82779C18.9219 9.57913 19.2021 9.27182 19.4193 8.92138C19.5445 8.72497 19.6121 8.49738 19.6142 8.26453C19.6102 8.02994 19.4813 7.96006 19.2814 8.05988C19.2587 8.06989 19.237 8.08192 19.2164 8.09582C19.1644 8.1351 19.1114 8.17379 19.0583 8.21258L19.0582 8.21264C18.9158 8.31675 18.7724 8.42151 18.6428 8.54004C18.4859 8.68323 18.3341 8.83227 18.1823 8.98138L18.1823 8.9814C18.0209 9.14 17.8593 9.29867 17.6914 9.45045C17.4523 9.66885 17.205 9.88145 16.9574 10.0943L16.9574 10.0943L16.9574 10.0944C16.7568 10.2668 16.556 10.4394 16.3592 10.6154C15.9102 10.999 15.4971 11.4227 15.125 11.8812L15.11 11.8999C14.9797 12.0625 14.8473 12.2278 14.8252 12.4422C14.7977 12.6858 14.7837 12.9308 14.7832 13.1759C14.7869 13.5904 14.7991 14.0011 14.8112 14.4124L14.8112 14.4124L14.8112 14.4125L14.8112 14.4126L14.8112 14.4127L14.8112 14.4128L14.8112 14.4129L14.8112 14.413L14.8112 14.4131L14.8112 14.4132L14.8113 14.4133L14.8113 14.4134L14.8113 14.4135L14.8113 14.4136L14.8113 14.4137L14.8113 14.4138L14.8113 14.4139L14.8113 14.414L14.8113 14.4141L14.8113 14.4141L14.8113 14.4142L14.8113 14.4143L14.8113 14.4144L14.8113 14.4145L14.8113 14.4146L14.8113 14.4147L14.8113 14.4148L14.8113 14.4149L14.8113 14.415L14.8113 14.4151L14.8113 14.4152L14.8113 14.4153L14.8113 14.4154L14.8113 14.4155L14.8113 14.4156L14.8113 14.4157L14.8113 14.4158L14.8113 14.4158L14.8113 14.4159C14.8154 14.5532 14.8194 14.6905 14.8232 14.828C14.8282 14.9858 14.8362 15.1435 14.8462 15.3002L14.8612 15.5379L14.8612 15.538L14.8612 15.538L14.8612 15.538L14.8612 15.5381C14.8818 15.8648 14.9024 16.1909 14.9281 16.5171C14.9447 16.7254 14.9666 16.9333 14.9885 17.1414C14.9996 17.2464 15.0107 17.3513 15.0211 17.4564L15.0416 17.6652C15.0681 17.9337 15.0946 18.2019 15.116 18.4707C15.124 18.5709 15.1271 18.6714 15.1303 18.7719C15.1331 18.8606 15.1359 18.9492 15.142 19.0377C15.1448 19.056 15.1519 19.0734 15.1629 19.0883C15.1739 19.1033 15.1883 19.1154 15.2049 19.1235C15.4061 19.1575 15.6077 19.1881 15.8092 19.2186ZM18.4694 15.3651V13.3966C18.4626 13.2374 18.5036 13.0798 18.5871 12.9441C18.6706 12.8083 18.7929 12.7007 18.9381 12.6349C19.0363 12.5894 19.1314 12.5377 19.223 12.4802C19.3135 12.4297 19.3808 12.3462 19.4108 12.2471C19.4409 12.148 19.4312 12.0412 19.3839 11.9491C19.3285 11.8318 19.2647 11.7188 19.193 11.6107C19.0577 11.4109 19.0047 11.1667 19.0451 10.9289C19.133 10.4297 19.6937 10.2301 20.1054 10.3928C20.6051 10.5925 20.6501 11.1585 20.4642 11.4989C20.4332 11.5552 20.4001 11.6103 20.3669 11.6655C20.3243 11.7365 20.2816 11.8076 20.2433 11.8812C20.1034 12.1497 20.1654 12.3604 20.4262 12.5131C20.5142 12.565 20.6061 12.6129 20.696 12.6559C20.8273 12.7185 20.9376 12.8179 21.0136 12.9419C21.0895 13.066 21.1278 13.2093 21.1238 13.3546C21.132 13.8119 21.1318 14.2698 21.1316 14.7278V14.7278V14.7278V14.7278V14.7278V14.7278V14.7278V14.7278V14.7279V14.7279V14.7279V14.7279V14.7279V14.7279V14.7279V14.7279V14.7279V14.7279V14.728V14.728V14.728V14.728V14.728V14.728V14.728V14.728V14.728V14.728V14.7281V14.7281V14.7281V14.7281V14.7281V14.7281V14.7281V14.7281V14.7281V14.7283C21.1316 14.881 21.1315 15.0337 21.1318 15.1864V17.2398C21.1318 17.5233 21.1048 17.6242 20.722 17.6451C20.5401 17.6561 20.4862 17.72 20.4882 17.8967C20.4922 18.1683 20.4908 18.4399 20.4895 18.7112V18.7114V18.7116V18.7119V18.7121V18.7123V18.7125C20.4888 18.8476 20.4882 18.9826 20.4882 19.1175C20.4882 19.2034 20.4642 19.2343 20.3752 19.2333H19.226C19.135 19.2333 19.103 19.2074 19.104 19.1136V17.9556C19.104 17.9037 19.099 17.8508 19.094 17.7989C19.086 17.699 19.0291 17.6541 18.9271 17.6501C18.8396 17.6483 18.7524 17.6369 18.6673 17.6162C18.6355 17.6125 18.6048 17.6025 18.5769 17.5868C18.5491 17.571 18.5246 17.5499 18.5051 17.5246C18.4855 17.4993 18.4712 17.4703 18.463 17.4394C18.4549 17.4085 18.453 17.3763 18.4574 17.3446V15.3651H18.4694ZM14.4001 26.8255L14.4001 26.8254C14.3958 26.7774 14.3916 26.7293 14.3881 26.6813L14.413 26.6713C14.421 26.6897 14.4287 26.7084 14.4364 26.727L14.4365 26.7272L14.4366 26.7274C14.4443 26.7461 14.452 26.7647 14.46 26.7831C14.519 26.9479 14.5887 27.1087 14.6689 27.2643C14.9446 27.7274 15.2249 28.1873 15.5052 28.6471L15.5054 28.6474C15.6395 28.8674 15.7736 29.0874 15.9071 29.3077C15.9209 29.3337 15.9422 29.3551 15.9681 29.3689C15.9941 29.3828 16.0237 29.3886 16.053 29.3856H17.2233C17.3042 29.3866 17.3332 29.3636 17.3332 29.2788V24.9613C17.3332 24.8815 17.3132 24.8505 17.2273 24.8505C16.8402 24.8545 16.4538 24.8545 16.068 24.8505C15.9851 24.8495 15.9581 24.8745 15.9581 24.9583V25.9067C15.9631 26.4148 15.9711 26.9239 15.9791 27.432C15.9791 27.4563 15.9813 27.4809 15.9835 27.5056C15.9858 27.5306 15.9881 27.5557 15.9881 27.5807C15.9561 27.5544 15.9319 27.5199 15.9181 27.4809C15.8585 27.3125 15.7881 27.1481 15.7072 26.9888C15.2995 26.301 14.8828 25.6182 14.465 24.9354C14.4498 24.9145 14.4303 24.8969 14.408 24.8839C14.3856 24.8708 14.3608 24.8625 14.3351 24.8595C13.9413 24.8545 13.5476 24.8545 13.1538 24.8545C13.0699 24.8535 13.0459 24.8825 13.0459 24.9643V29.2818C13.0459 29.3656 13.0729 29.3896 13.1558 29.3896H14.3041C14.4011 29.3906 14.421 29.3556 14.421 29.2668V27.1705C14.4203 27.0551 14.4102 26.9402 14.4001 26.8255ZM22.1854 27.1225V29.2498C22.1854 29.3856 22.1854 29.3866 22.0445 29.3866H20.8743C20.7743 29.3866 20.7453 29.3526 20.7463 29.2538C20.7497 28.9182 20.7486 28.5822 20.7474 28.2463V28.2462V28.2461V28.246V28.2459V28.2458V28.2457V28.2456V28.2455V28.2454V28.2453V28.2452V28.2451V28.245V28.2449V28.2448V28.2447V28.2446V28.2445V28.2444V28.2443V28.2442V28.2441V28.244V28.2439V28.2438V28.2437V28.2435V28.2434V28.2433V28.2432V28.2431V28.243V28.2429V28.2428V28.2427V28.2426C20.7469 28.0742 20.7463 27.9058 20.7463 27.7375C20.7463 27.6426 20.7214 27.6107 20.6234 27.6117C20.2407 27.6167 19.8569 27.6177 19.4741 27.6117C19.3742 27.6117 19.3512 27.6446 19.3522 27.7385V29.2658C19.3522 29.3566 19.3282 29.3876 19.2343 29.3866H18.022C17.9391 29.3866 17.9121 29.3626 17.9121 29.2788V24.9613C17.9121 24.8795 17.9361 24.8505 18.02 24.8515H19.2433C19.3252 24.8515 19.3532 24.8765 19.3522 24.9593V26.287C19.3522 26.3768 19.3772 26.4108 19.4701 26.4098C19.8572 26.4058 20.2437 26.4058 20.6294 26.4098C20.7293 26.4098 20.7473 26.3738 20.7463 26.285V24.9793C20.7463 24.8864 20.7653 24.8495 20.8683 24.8505C21.268 24.8565 21.6678 24.8555 22.0675 24.8505C22.1625 24.8505 22.1844 24.8825 22.1844 24.9723C22.1844 25.3301 22.1847 25.6873 22.1849 26.0445L22.1849 26.0482C22.1852 26.4063 22.1854 26.7643 22.1854 27.1225ZM31.1601 27.3182C31.1297 27.3072 31.1 27.2945 31.0711 27.2803L31.226 27.1944C31.3654 27.1258 31.4869 27.0256 31.5807 26.9019C31.6746 26.7782 31.7383 26.6343 31.7667 26.4817C31.795 26.3169 31.8038 26.1493 31.7927 25.9825C31.7647 25.5453 31.5698 25.2229 31.1561 25.0462C30.8282 24.9185 30.4785 24.8561 30.1267 24.8625C29.5707 24.8544 29.0135 24.8555 28.4569 24.8567H28.4568H28.4566H28.4565H28.4563H28.4562H28.456H28.4559H28.4557H28.4556H28.4554H28.4553H28.4551H28.455H28.4548H28.4547H28.4545H28.4544H28.4542H28.4541H28.4539H28.4538H28.4536H28.4535H28.4533H28.4532H28.453H28.4529H28.4527H28.4526H28.4524H28.4523H28.4522H28.452H28.4519H28.4517H28.4515C28.2546 24.8571 28.0578 24.8575 27.8611 24.8575C27.7672 24.8565 27.7412 24.8854 27.7412 24.9773V29.2698C27.7412 29.3616 27.7672 29.3906 27.8611 29.3906C28.2542 29.3859 28.6476 29.3859 29.0414 29.3906C29.1333 29.3916 29.1613 29.3646 29.1613 29.2718C29.1613 29.123 29.1619 28.9742 29.1624 28.8255C29.1635 28.5281 29.1647 28.2309 29.1613 27.9341C29.1603 27.8333 29.1963 27.8093 29.2892 27.8093C29.3821 27.813 29.4749 27.8148 29.5678 27.8167H29.5679C29.7029 27.8193 29.8378 27.822 29.9728 27.8303C30.0321 27.83 30.0908 27.8414 30.1457 27.8639C30.2005 27.8863 30.2504 27.9194 30.2925 27.9611C30.3345 28.0028 30.3679 28.0524 30.3907 28.1071C30.4136 28.1617 30.4254 28.2203 30.4255 28.2795C30.4318 28.3779 30.4339 28.4776 30.436 28.5769C30.4382 28.682 30.4403 28.7868 30.4475 28.8894C30.459 29.0319 30.479 29.1736 30.5075 29.3137C30.5151 29.332 30.5273 29.3482 30.5428 29.3606C30.5584 29.373 30.5768 29.3812 30.5964 29.3846H31.8826C31.9106 29.3846 31.9626 29.3596 31.9626 29.3436C31.9593 29.3053 31.9477 29.2682 31.9286 29.2348C31.8919 29.179 31.8642 29.1176 31.8466 29.0532C31.8368 28.9152 31.8313 28.7768 31.8259 28.6384V28.6384C31.8192 28.4685 31.8125 28.2987 31.7977 28.1298C31.7597 27.7065 31.6008 27.44 31.1601 27.3182ZM30.0168 26.8131H29.627L29.5319 26.8128H29.5318C29.4369 26.8125 29.3424 26.8121 29.2473 26.8151C29.1833 26.8171 29.1633 26.7921 29.1633 26.7292V26.0145C29.1633 25.9676 29.1683 25.9316 29.2293 25.9316C29.3214 25.9337 29.414 25.9347 29.5065 25.9356H29.5065H29.5065H29.5065H29.5066H29.5066H29.5066H29.5066H29.5066H29.5066H29.5067H29.5067H29.5067H29.5067H29.5067H29.5068H29.5068H29.5068H29.5068H29.5068H29.5068H29.5069H29.5069H29.5069H29.5069H29.5069H29.5069H29.507H29.507H29.507H29.507H29.507H29.507H29.5071H29.5071C29.7204 25.9377 29.9337 25.9399 30.1427 25.9566C30.3706 25.9755 30.4705 26.1103 30.4705 26.3429C30.4725 26.6623 30.3426 26.8001 30.0168 26.8131ZM8.05215 26.4298V24.9763C8.05215 24.8765 8.08014 24.8505 8.17707 24.8525C8.57682 24.8572 8.97391 24.8572 9.36833 24.8525C9.46827 24.8525 9.49225 24.8845 9.49225 24.9793V27.6746C9.49239 27.7691 9.5021 27.8635 9.52123 27.9561C9.5772 28.2156 9.7441 28.3554 10.0609 28.3853C10.2076 28.3983 10.3555 28.3895 10.4996 28.3594C10.7765 28.3025 10.9164 28.0918 10.9214 27.7494V26.9389V24.9903C10.9214 24.8904 10.9433 24.8495 11.0543 24.8515C11.454 24.8585 11.8538 24.8565 12.2455 24.8515C12.3305 24.8515 12.3615 24.8745 12.3615 24.9633C12.3615 25.2339 12.3624 25.5044 12.3633 25.7749C12.3657 26.4736 12.3682 27.1722 12.3545 27.8702C12.3425 28.4822 12.0926 29.0601 11.3341 29.3317C10.5978 29.6015 9.78871 29.5969 9.05552 29.3187C8.78235 29.2285 8.54284 29.0579 8.36842 28.8294C8.194 28.6008 8.09282 28.3249 8.07814 28.0379C8.05681 27.8176 8.05659 27.5918 8.05637 27.3666C8.05629 27.2857 8.05621 27.205 8.05515 27.1245C8.05127 26.9447 8.05161 26.7672 8.05195 26.5865L8.05215 26.4298ZM26.9813 28.6346C27.1672 28.3447 27.2665 28.0079 27.2676 27.6636C27.2556 27.657 27.2429 27.652 27.2296 27.6486H25.9954C25.9274 27.6486 25.9194 27.6846 25.9095 27.7395C25.8055 28.3194 25.3398 28.4832 24.8711 28.3654C24.5513 28.2865 24.3804 28.0519 24.2945 27.7524C24.1773 27.3421 24.1738 26.9077 24.2845 26.4956C24.4044 26.0324 24.6772 25.8358 25.1569 25.8418C25.3276 25.834 25.495 25.8904 25.6261 25.9998C25.7573 26.1091 25.8427 26.2636 25.8655 26.4327C25.8805 26.5226 25.9144 26.5396 25.9944 26.5396H27.0377C27.2596 26.5396 27.2626 26.5386 27.2246 26.3149C27.1087 25.6262 26.7379 25.137 26.0743 24.8924C25.6031 24.7228 25.0954 24.6798 24.6023 24.7677C23.8238 24.8944 23.2551 25.3027 22.9553 26.0474C22.7475 26.5951 22.7034 27.1912 22.8284 27.7634C22.9088 28.2681 23.1746 28.7247 23.5739 29.0442C23.9178 29.3094 24.332 29.468 24.7652 29.5004C25.2587 29.5634 25.7601 29.4945 26.2183 29.3007C26.5308 29.1556 26.7955 28.9246 26.9813 28.6346ZM22.0845 23.6896C21.9455 23.8313 21.9086 23.8303 21.7846 23.7055C21.3779 23.2793 20.9502 22.876 20.4105 22.6224L20.393 22.6142C20.1036 22.4783 19.9606 22.4112 19.818 22.412C19.6787 22.4129 19.5398 22.4787 19.2652 22.6087L19.2362 22.6224C18.7036 22.871 18.2778 23.2683 17.8771 23.6896C17.8617 23.7042 17.8474 23.7199 17.8341 23.7365C17.7841 23.8093 17.7272 23.8303 17.6522 23.7674C17.6207 23.7452 17.5873 23.7258 17.5523 23.7095C17.8064 23.4131 18.1027 23.1554 18.4317 22.9449C18.6555 22.8023 18.8877 22.6724 19.1203 22.5423C19.2264 22.483 19.3326 22.4236 19.4381 22.3629C19.3889 22.3629 19.3389 22.3615 19.2886 22.36L19.2885 22.36H19.2884C19.1864 22.3571 19.0827 22.3542 18.9804 22.3629C18.4737 22.4108 17.993 22.5695 17.5153 22.7332C17.0264 22.909 16.5156 23.0168 15.9973 23.0537C15.4561 23.0862 14.9134 23.0247 14.3933 22.872C14.3063 22.8339 14.2244 22.7853 14.1494 22.7272L14.1614 22.6963C14.1758 22.6904 14.1909 22.6867 14.2064 22.6853C14.733 22.7262 15.2277 22.5985 15.7164 22.4178C16.1953 22.2449 16.695 22.1361 17.2025 22.0943C17.2727 22.0879 17.343 22.0811 17.4134 22.0743L17.414 22.0743L17.414 22.0743C17.6929 22.0473 17.9725 22.0203 18.2508 22.0155C18.7324 22.0079 19.2122 22.0753 19.673 22.2151C19.7732 22.2466 19.8806 22.2466 19.9808 22.2151C20.4584 22.0693 20.9566 22.0019 21.4558 22.0155C22.3953 22.0474 23.3217 22.1662 24.2061 22.5096C24.5817 22.652 24.9836 22.7119 25.3844 22.6853H25.4843L25.5003 22.7123C25.4789 22.7279 25.4581 22.7463 25.4372 22.7646C25.3929 22.8036 25.3487 22.8425 25.3004 22.854C24.9813 22.9343 24.6581 22.997 24.332 23.0417C23.4406 23.1415 22.6021 22.9099 21.7716 22.6194C21.3022 22.4383 20.8028 22.3469 20.2996 22.3499C20.2625 22.3504 20.2257 22.3568 20.1906 22.3689C20.9058 22.6748 21.5504 23.1244 22.0845 23.6896ZM15.8669 21.5723C15.9018 21.6007 15.9352 21.631 15.9668 21.6631L15.9588 21.6911C15.912 21.6921 15.8652 21.6891 15.8189 21.6821C15.7089 21.6561 15.6 21.6292 15.4931 21.5952C14.9636 21.421 14.4231 21.2822 13.8751 21.1799L13.8286 21.1718L13.8286 21.1718C13.4572 21.1068 13.0854 21.0418 12.7458 20.8645C12.6728 20.8256 12.6019 20.7896 12.502 20.7417C12.5177 20.776 12.5354 20.8093 12.5549 20.8415C12.5786 20.872 12.6 20.9029 12.6212 20.9333C12.6498 20.9746 12.678 21.0152 12.7108 21.0532C13.1096 21.5074 13.6292 21.7599 14.1959 21.9316C14.4195 22.0135 14.6578 22.0475 14.8955 22.0315C15.1953 21.9925 15.4951 21.9426 15.7949 21.8857C15.9351 21.8588 16.0739 21.8223 16.2187 21.7843C16.2886 21.7659 16.3599 21.7472 16.4335 21.729C16.4213 21.714 16.4108 21.7012 16.4015 21.6899L16.4015 21.6899C16.3816 21.6658 16.3671 21.6482 16.3535 21.6292C16.1654 21.3894 15.9922 21.1384 15.8349 20.8775C15.4971 20.2366 14.9904 19.7514 14.4627 19.2803C14.3938 19.2277 14.3202 19.1816 14.2429 19.1425C14.4022 19.4042 14.4732 19.6887 14.5434 19.9702L14.5667 20.0629C14.67 20.5044 14.9254 20.8956 15.2882 21.168C15.404 21.2542 15.5231 21.3356 15.6421 21.4169C15.7174 21.4683 15.7926 21.5197 15.8669 21.5723ZM23.2785 21.5945L23.2787 21.5944L23.2787 21.5943C23.3568 21.4975 23.4334 21.4026 23.5044 21.3047C23.5982 21.1862 23.6795 21.0584 23.7473 20.9234C23.9343 20.5414 24.1874 20.1953 24.4948 19.9012C24.6929 19.6962 24.9045 19.5055 25.1176 19.3135L25.1944 19.2443C25.2475 19.203 25.3078 19.1719 25.3722 19.1525C25.2144 19.3922 25.1438 19.6604 25.0734 19.9277L25.0734 19.9278C25.0444 20.0379 25.0155 20.1478 24.9805 20.2556C24.8439 20.6539 24.582 20.9974 24.234 21.2349C24.144 21.3007 24.0509 21.3623 23.9577 21.4239L23.9577 21.4239L23.9576 21.4239C23.8955 21.465 23.8334 21.506 23.7722 21.5483C23.7432 21.5691 23.7161 21.5927 23.6891 21.6164L23.689 21.6164C23.6733 21.6301 23.6575 21.6439 23.6413 21.6571L23.6583 21.699C23.7443 21.6885 23.8297 21.6735 23.9142 21.6541C24.0736 21.6102 24.2328 21.5645 24.392 21.5188C24.667 21.4399 24.9421 21.3609 25.2193 21.2908C25.5192 21.2149 25.819 21.161 26.1258 21.1081C26.4192 21.0538 26.7026 20.9552 26.9663 20.8156C27.0052 20.7937 27.0469 20.7769 27.0902 20.7657C26.971 20.9963 26.8 21.1962 26.5905 21.3497C26.1165 21.7178 25.5515 21.9506 24.9555 22.0235C24.7248 22.0382 24.4931 22.0191 24.2679 21.9666C24.0226 21.9231 23.7798 21.8659 23.5374 21.8087C23.4461 21.7872 23.3549 21.7657 23.2636 21.745C23.2359 21.7365 23.2089 21.7262 23.1826 21.714C23.2147 21.6736 23.2467 21.6339 23.2785 21.5945ZM11.1456 18.2385L11.1052 18.1962L11.0732 18.1952C11.0879 18.3135 11.1113 18.4306 11.1432 18.5455C11.467 19.4879 12.0926 20.1358 13.042 20.4422C13.2988 20.5249 13.5637 20.582 13.8285 20.639C13.944 20.6639 14.0595 20.6888 14.1743 20.7157C14.1793 20.7167 14.1993 20.7207 14.1993 20.7038V20.6479L14.1853 20.5382L14.1853 20.5382L14.1853 20.5381L14.1853 20.5381L14.1853 20.538L14.1853 20.538L14.1853 20.5379L14.1853 20.5379L14.1853 20.5379L14.1853 20.5378L14.1853 20.5378L14.1853 20.5377L14.1853 20.5377L14.1853 20.5376L14.1853 20.5376L14.1853 20.5376L14.1853 20.5375L14.1853 20.5375L14.1852 20.5374L14.1852 20.5374L14.1852 20.5373L14.1852 20.5373L14.1852 20.5373L14.1852 20.5372L14.1852 20.5372L14.1852 20.5371L14.1852 20.5371L14.1852 20.537L14.1852 20.537C14.1661 20.3863 14.147 20.2358 14.1253 20.0858C14.1135 20.0006 14.1028 19.9151 14.0922 19.8296L14.0922 19.8295L14.0922 19.8295C14.0634 19.5985 14.0347 19.3673 13.9814 19.1415C13.8625 18.6254 13.5817 18.1822 13.2819 17.7509C13.2608 17.72 13.2367 17.6908 13.2081 17.6562C13.1933 17.6383 13.1773 17.619 13.1599 17.5972C13.1363 17.9839 13.1598 18.3721 13.2299 18.7532C13.3196 19.1754 13.4712 19.582 13.6796 19.9601C13.7129 20.0218 13.7401 20.0867 13.7606 20.1537C13.7875 20.2456 13.7516 20.2865 13.6606 20.2615C13.5755 20.2432 13.4946 20.2094 13.4218 20.1617C13.339 20.0988 13.262 20.0286 13.185 19.9585L13.185 19.9585L13.185 19.9585C13.1374 19.9152 13.0899 19.8719 13.041 19.8303C12.8153 19.6207 12.577 19.425 12.3275 19.2443C11.9518 19.0034 11.6062 18.7185 11.2981 18.3958C11.2475 18.3452 11.1968 18.2921 11.1457 18.2385L11.1457 18.2385L11.1457 18.2385L11.1457 18.2385L11.1457 18.2385L11.1457 18.2385L11.1456 18.2385ZM25.3877 20.7347C25.4105 20.5731 25.4313 20.4123 25.4521 20.2525C25.4988 19.8932 25.5448 19.5384 25.6106 19.1874C25.6955 18.7322 25.9413 18.3409 26.1872 17.9556C26.2607 17.8383 26.3464 17.7293 26.443 17.6302C26.4537 17.7086 26.4603 17.7876 26.463 17.8667C26.4673 18.5618 26.3008 19.2473 25.9783 19.8632C25.9252 19.9619 25.8794 20.0643 25.8414 20.1697C25.8114 20.2546 25.8514 20.3025 25.9354 20.2695C26.0516 20.2342 26.1611 20.1795 26.2592 20.1078C26.3611 20.025 26.4553 19.9336 26.5492 19.8425L26.5493 19.8425L26.5493 19.8424C26.6184 19.7755 26.6873 19.7087 26.7588 19.6456C26.925 19.4949 27.1028 19.3574 27.2905 19.2344C27.7105 18.9703 28.0901 18.6472 28.4178 18.275C28.4437 18.2447 28.4757 18.2202 28.5117 18.2032C28.5104 18.2732 28.5034 18.3429 28.4908 18.4118C28.3923 18.797 28.2149 19.1577 27.9698 19.4709C27.7247 19.7841 27.4171 20.0432 27.0666 20.2316C26.6971 20.4194 26.299 20.5449 25.8884 20.603C25.79 20.6204 25.6936 20.648 25.5971 20.6757L25.5969 20.6757C25.5552 20.6877 25.5135 20.6996 25.4716 20.7108L25.3877 20.7347ZM10.9647 13.3427C11.0347 13.7835 11.1866 14.2073 11.4124 14.5925C11.5667 14.1637 11.8122 13.7734 12.1319 13.4485C12.3524 13.2212 12.5322 12.9578 12.6636 12.6698C12.7529 12.47 12.8299 12.2647 12.9098 12.0521L12.9098 12.0521C12.9444 11.96 12.9795 11.8665 13.0164 11.7714C12.971 11.8069 12.9265 11.8413 12.8828 11.8749C12.7535 11.9746 12.6318 12.0685 12.5167 12.1707C12.3597 12.3052 12.2121 12.4503 12.075 12.605C11.9369 12.7639 11.8135 12.9349 11.7062 13.1161C11.6378 13.2336 11.5839 13.3604 11.5266 13.4953C11.5002 13.5576 11.473 13.6215 11.4434 13.6871C11.4354 13.6692 11.4294 13.6569 11.4251 13.6479L11.4251 13.6479L11.4251 13.6479C11.4181 13.6333 11.4154 13.6277 11.4154 13.6222C11.427 13.5224 11.4398 13.4225 11.4526 13.3227L11.4526 13.3227C11.4781 13.1231 11.5037 12.9234 11.5203 12.7237C11.5453 12.4943 11.5503 12.2632 11.5353 12.033C11.5253 11.9211 11.5111 11.8094 11.497 11.6978C11.4645 11.4419 11.432 11.1858 11.4494 10.9259L11.4614 10.7572L11.4314 10.7452C11.3656 10.8249 11.3083 10.9112 11.2605 11.0028C11.1621 11.2296 11.0799 11.4631 11.0146 11.7015C10.9434 11.9651 10.9005 12.2355 10.8867 12.5081C10.8883 12.788 10.9144 13.0673 10.9647 13.3427ZM26.6185 11.7784C26.6836 11.8329 26.7498 11.8863 26.8161 11.9396C26.9644 12.0589 27.1127 12.1783 27.2481 12.3115C27.4466 12.4997 27.6257 12.7074 27.7828 12.9314C27.9234 13.1631 28.0499 13.4031 28.1615 13.6501L28.1905 13.6421L28.1635 13.3776C28.1523 13.2651 28.1397 13.1526 28.127 13.0401L28.127 13.04L28.127 13.0398L28.127 13.0396L28.127 13.0395L28.127 13.0393L28.1269 13.0391L28.1269 13.0389L28.1269 13.0387L28.1269 13.0385C28.0959 12.7622 28.0649 12.4856 28.0536 12.2086C28.0484 12.0859 28.0696 11.9625 28.0909 11.8389C28.1067 11.7473 28.1224 11.6555 28.1275 11.5638C28.1369 11.3855 28.1338 11.2064 28.1307 11.0269V11.0269C28.1291 10.937 28.1275 10.8471 28.1275 10.7572L28.1715 10.7412C28.2419 10.837 28.3063 10.937 28.3644 11.0407C28.5266 11.3798 28.6313 11.7434 28.6742 12.1168C28.7835 12.9463 28.6275 13.789 28.2285 14.5246C28.224 14.5323 28.219 14.5397 28.2133 14.5484C28.2064 14.5588 28.1984 14.5711 28.1885 14.5875C28.0632 14.236 27.8764 13.9095 27.6368 13.6232C27.5897 13.5669 27.5412 13.5112 27.4927 13.4556C27.3933 13.3414 27.2938 13.2272 27.2051 13.1071C27.0261 12.8651 26.8883 12.5953 26.7974 12.3085C26.7596 12.1966 26.7163 12.0864 26.673 11.9762L26.673 11.9761L26.673 11.976L26.6729 11.9759L26.6729 11.9758L26.6729 11.9758L26.6728 11.9757L26.6728 11.9756L26.6728 11.9755L26.6727 11.9754L26.6727 11.9753L26.6727 11.9752L26.6726 11.9751L26.6726 11.975L26.6726 11.9749L26.6725 11.9749L26.6725 11.9748L26.6725 11.9748L26.6725 11.9747L26.6724 11.9747L26.6724 11.9746L26.6724 11.9745L26.6724 11.9745L26.6723 11.9744L26.6723 11.9744L26.6723 11.9743C26.6494 11.9161 26.6265 11.8578 26.6045 11.7994L26.6185 11.7784ZM11.3001 16.8444C10.9876 16.5547 10.6748 16.2649 10.4824 15.8722C10.5987 16.6931 10.9952 17.4488 11.6047 18.0115C11.888 18.287 12.2295 18.4958 12.6041 18.6224C12.6106 18.5804 12.6167 18.5423 12.6225 18.5063L12.6226 18.506L12.6226 18.506L12.6226 18.5059C12.6291 18.4651 12.6352 18.4269 12.6411 18.3888C12.6575 18.2799 12.6762 18.1712 12.695 18.0624C12.7358 17.826 12.7766 17.5895 12.793 17.3516C12.8251 16.8193 12.7766 16.2852 12.6491 15.7674C12.6259 15.6695 12.5912 15.5744 12.5566 15.4795C12.5403 15.4351 12.5241 15.3907 12.5092 15.3461L12.4722 15.3531C12.4689 15.3749 12.4662 15.3967 12.4634 15.4185C12.4586 15.4566 12.4538 15.4947 12.4462 15.5328C12.4215 15.6525 12.3922 15.7714 12.363 15.8902L12.3629 15.8902L12.3629 15.8903L12.3629 15.8903L12.3629 15.8903L12.3629 15.8903L12.3629 15.8903L12.3629 15.8903L12.3629 15.8904L12.3629 15.8904L12.3629 15.8904L12.3629 15.8904L12.3629 15.8904L12.3629 15.8905L12.3629 15.8905L12.3629 15.8905L12.3629 15.8905L12.3629 15.8905L12.3629 15.8906L12.3629 15.8906L12.3629 15.8906L12.3629 15.8906L12.3629 15.8906L12.3629 15.8906L12.3628 15.8907L12.3628 15.8907C12.2928 16.1751 12.2228 16.4597 12.2143 16.7567L12.214 16.7691C12.2041 17.1123 12.1942 17.4543 12.3483 17.7759C12.385 17.8829 12.3875 17.9988 12.3553 18.1073C12.3224 18.0839 12.2951 18.0536 12.2753 18.0185C12.0228 17.6089 11.717 17.2346 11.3659 16.9054L11.3001 16.8444ZM27.0113 18.6094C26.7424 17.5113 26.6985 16.4223 27.0892 15.3501H27.1232C27.1478 15.4659 27.1735 15.5816 27.1992 15.6974L27.1992 15.6975C27.254 15.9439 27.3089 16.1906 27.3531 16.4392C27.417 16.7884 27.417 17.1462 27.3531 17.4954C27.3371 17.581 27.3092 17.664 27.2701 17.7419C27.2258 17.8552 27.213 17.9784 27.2331 18.0983L27.2861 18.1412C27.2893 18.1131 27.2964 18.0856 27.3071 18.0594C27.6037 17.5728 27.9711 17.1331 28.3974 16.7547C28.542 16.6267 28.6773 16.4886 28.8022 16.3414C28.8874 16.2385 28.961 16.1265 29.0324 16.018L29.0324 16.018C29.0614 15.9739 29.0901 15.9303 29.119 15.8882C29.1739 16.8036 27.9067 18.4507 27.0113 18.6094ZM28.2127 15.6975C28.1726 15.7868 28.1258 15.8728 28.0728 15.9551L28.0238 15.9381C28.0366 15.5204 27.9645 15.1044 27.8119 14.7153C27.6811 14.3567 27.4775 14.0378 27.2733 13.7179L27.2733 13.7179L27.2123 13.6222C27.1347 13.862 27.1129 14.1163 27.1483 14.3659C27.2109 14.7691 27.3617 15.1536 27.5901 15.4919C27.7264 15.701 27.8173 15.9363 27.8569 16.1827C27.8639 16.2296 27.8758 16.276 27.8892 16.3282C27.8949 16.3504 27.9009 16.3736 27.9069 16.3983C27.9254 16.3858 27.9419 16.375 27.9571 16.3651L27.9571 16.3651C27.9829 16.3483 28.0047 16.3342 28.0248 16.3184C28.3608 16.0397 28.6374 15.6966 28.8383 15.3092C29.1445 14.7922 29.3269 14.2113 29.371 13.6122C29.3679 13.4676 29.3539 13.3234 29.329 13.1809C29.2267 13.4068 29.1129 13.6274 28.9882 13.8418C28.7558 14.2059 28.5708 14.598 28.4375 15.0087C28.4085 15.096 28.3808 15.1839 28.3531 15.2719L28.3531 15.272L28.353 15.2722L28.353 15.2723L28.353 15.2724L28.353 15.2724L28.353 15.2724L28.353 15.2724L28.3529 15.2724L28.3529 15.2724L28.3529 15.2725L28.3529 15.2725L28.3529 15.2725L28.3529 15.2725L28.3529 15.2725L28.3529 15.2726L28.3529 15.2726L28.3529 15.2726L28.3529 15.2726L28.3529 15.2726L28.3529 15.2726L28.3529 15.2727L28.3529 15.2727L28.3529 15.2727L28.3529 15.2727C28.3081 15.4148 28.2632 15.5571 28.2127 15.6975ZM12.3927 13.6242C12.4999 13.973 12.4964 14.3465 12.3827 14.6933C12.2973 14.9453 12.1875 15.1883 12.0549 15.419C11.8869 15.6864 11.7745 15.9848 11.7241 16.2965C11.7241 16.3153 11.7182 16.3334 11.7095 16.3599C11.704 16.377 11.6972 16.3977 11.6902 16.4243C11.5388 16.2959 11.3947 16.1593 11.2584 16.015C10.7228 15.4006 10.3758 14.6451 10.2591 13.8388C10.2462 13.6391 10.2508 13.4387 10.273 13.2398C10.2798 13.2134 10.2898 13.1879 10.303 13.164C10.3884 13.4736 10.5468 13.7294 10.7046 13.9841C10.7314 14.0274 10.7583 14.0708 10.7847 14.1143C11.0061 14.4836 11.1354 14.8907 11.2644 15.2972L11.2844 15.3601C11.2964 15.3972 11.3079 15.4344 11.3194 15.4717L11.3194 15.4717L11.3194 15.4717C11.3482 15.5648 11.3769 15.6579 11.4133 15.7484C11.4496 15.8235 11.4994 15.8911 11.5602 15.9481C11.5641 15.5267 11.6426 15.1093 11.7921 14.7153C11.9167 14.3734 12.1129 14.0647 12.3105 13.7539L12.3106 13.7537C12.338 13.7106 12.3655 13.6674 12.3927 13.6242ZM25.9795 10.314L25.9794 10.314L25.9794 10.314C25.8765 10.2598 25.7736 10.2057 25.6735 10.1483L25.6455 10.1802C25.9053 10.6589 26.25 11.0865 26.6629 11.442C26.7693 11.5307 26.8798 11.6143 26.9904 11.6981L26.9904 11.6981C27.2373 11.885 27.4852 12.0727 27.6922 12.3195C27.7371 12.1189 27.7704 11.9159 27.7922 11.7115C27.8509 11.258 27.8005 10.7971 27.6453 10.3669C27.5213 10.0354 27.3724 9.719 27.1076 9.47343C27.0439 9.4194 26.9772 9.36907 26.9077 9.32269L26.8827 9.34366C26.8894 9.36428 26.8963 9.38479 26.9032 9.4053C26.9169 9.44635 26.9307 9.4874 26.9427 9.52933C27.0342 9.85691 27.1026 10.1905 27.1476 10.5276C27.1791 10.7246 27.2434 10.9159 27.3078 11.1075C27.3374 11.1955 27.367 11.2835 27.3934 11.3721C27.4051 11.4114 27.4125 11.4523 27.4199 11.4932C27.4226 11.5084 27.4254 11.5236 27.4284 11.5388L27.3954 11.5478C27.3171 11.4598 27.2426 11.3685 27.1683 11.2773C27.0065 11.0788 26.8455 10.8813 26.6469 10.7212C26.4459 10.5592 26.2126 10.4366 25.9795 10.314ZM12.2683 11.4995L12.2683 11.4994L12.2683 11.4994L12.2683 11.4994L12.2683 11.4994L12.2683 11.4994L12.2683 11.4994L12.2683 11.4994L12.2684 11.4994L12.2684 11.4994C12.2834 11.4847 12.2984 11.47 12.3131 11.455C12.3619 11.3962 12.4102 11.3375 12.4586 11.2788C12.5747 11.1378 12.6907 10.9969 12.8128 10.856C12.9832 10.6664 13.1925 10.5156 13.4264 10.4138C13.601 10.3288 13.7801 10.2535 13.963 10.1882C13.9238 10.2463 13.8853 10.3049 13.8468 10.3635L13.8468 10.3635L13.8468 10.3635L13.8468 10.3635L13.8468 10.3635L13.8468 10.3635L13.8468 10.3636L13.8468 10.3636L13.8468 10.3636L13.8468 10.3636L13.8468 10.3636L13.8467 10.3636L13.8467 10.3636L13.8467 10.3636L13.8467 10.3636L13.8467 10.3636L13.8467 10.3637L13.8467 10.3637L13.8467 10.3637L13.8467 10.3637C13.7635 10.4903 13.6804 10.6168 13.5903 10.7382C13.3115 11.1146 12.9741 11.4439 12.5909 11.7135C12.4233 11.8322 12.2699 11.9711 12.1138 12.1126L12.1137 12.1126C12.0427 12.1769 11.9711 12.2418 11.8973 12.3055C11.8887 12.2606 11.8791 12.2144 11.8694 12.1672C11.8453 12.0508 11.82 11.9285 11.8044 11.8063C11.7499 11.4201 11.7699 11.0271 11.8634 10.6484C11.9549 10.2636 12.1307 9.90397 12.378 9.59521C12.4721 9.4801 12.5892 9.38591 12.7218 9.3187C12.7162 9.34165 12.7119 9.36064 12.7083 9.3771L12.7083 9.3771C12.7022 9.40429 12.6977 9.42457 12.6908 9.44447C12.5772 9.80805 12.4972 10.1813 12.452 10.5595C12.426 10.7465 12.3618 10.9283 12.2976 11.1101L12.2975 11.1101C12.2678 11.1943 12.2381 11.2784 12.2121 11.3631C12.2006 11.4004 12.1927 11.4384 12.1849 11.4765L12.1849 11.4765L12.1849 11.4765L12.1849 11.4766L12.1849 11.4766L12.1849 11.4766L12.1849 11.4766L12.1848 11.4766L12.1848 11.4766L12.1848 11.4766L12.1848 11.4766C12.1805 11.4977 12.1761 11.5188 12.1712 11.5398L12.2131 11.5548C12.2309 11.536 12.2495 11.5177 12.2683 11.4995ZM14.2157 30.8021V30.7023L14.2437 30.6963L14.2437 30.6964C14.2617 30.7253 14.2797 30.7542 14.2966 30.7831C14.3287 30.8397 14.3619 30.8959 14.395 30.9522L14.395 30.9523L14.395 30.9523L14.3951 30.9523L14.3951 30.9524L14.3951 30.9524L14.3951 30.9525L14.3952 30.9525L14.3952 30.9525L14.3952 30.9526L14.3952 30.9526L14.3952 30.9527L14.3953 30.9527L14.3953 30.9527L14.3953 30.9528L14.3953 30.9528L14.3953 30.9529L14.3954 30.9529L14.3954 30.9529C14.4768 31.0912 14.5582 31.2294 14.6234 31.3711C14.6497 31.4465 14.7029 31.5095 14.7727 31.5482C14.8426 31.5868 14.9243 31.5984 15.0022 31.5807C15.0891 31.5717 15.1151 31.5508 15.1151 31.4639V30.3908C15.115 30.3588 15.1156 30.3317 15.1162 30.3088C15.1176 30.2495 15.1183 30.2184 15.1031 30.2021C15.0865 30.1841 15.0508 30.1838 14.9759 30.1832C14.9536 30.1831 14.9279 30.1829 14.8983 30.1822C14.8223 30.1772 14.7983 30.2041 14.7983 30.282C14.8063 30.5096 14.8143 30.7382 14.8143 30.9658C14.8183 30.9864 14.817 31.0074 14.8157 31.0286C14.815 31.0393 14.8143 31.05 14.8143 31.0606C14.785 31.0499 14.7607 31.0285 14.7464 31.0007C14.6988 30.9152 14.6518 30.8296 14.6048 30.744L14.6048 30.7439C14.5421 30.6299 14.4795 30.5158 14.4156 30.4018C14.2886 30.1772 14.2866 30.1772 14.0288 30.1772C13.9399 30.1772 13.9169 30.2071 13.9169 30.293V31.3561C13.917 31.3906 13.9163 31.4196 13.9158 31.4439V31.444C13.9143 31.5064 13.9135 31.5384 13.9292 31.5549C13.9457 31.5723 13.9803 31.5725 14.0515 31.5728C14.0748 31.5729 14.102 31.573 14.1337 31.5737C14.2117 31.5797 14.2337 31.5518 14.2337 31.4739C14.2277 31.3245 14.2243 31.175 14.221 31.0253L14.221 31.0252L14.221 31.0251L14.221 31.0249L14.221 31.0248L14.221 31.0247L14.221 31.0246L14.221 31.0244C14.2193 30.9504 14.2177 30.8763 14.2157 30.8021ZM17.1839 30.9139C17.3505 30.989 17.3547 31.1276 17.3591 31.27L17.3598 31.2912C17.3671 31.3863 17.3795 31.4809 17.3967 31.5747H17.1139C17.0929 31.5747 17.0619 31.5378 17.058 31.5138C17.0461 31.4311 17.0387 31.3478 17.036 31.2643C17.029 31.1225 16.984 31.0646 16.8471 31.0437C16.5763 30.9977 16.5533 31.0167 16.5533 31.2872V31.3571C16.5533 31.5877 16.5243 31.6137 16.2944 31.5717C16.2788 31.5654 16.2649 31.5552 16.2543 31.5421C16.2436 31.5291 16.2365 31.5135 16.2335 31.4969C16.2295 31.0823 16.2295 30.6683 16.2335 30.255C16.2335 30.2311 16.2684 30.1862 16.2874 30.1862C16.5573 30.1862 16.8271 30.1862 17.0969 30.2011C17.1666 30.2016 17.2339 30.2262 17.2873 30.2709C17.3408 30.3155 17.377 30.3773 17.3897 30.4457C17.4133 30.52 17.4123 30.5999 17.3869 30.6736C17.3616 30.7473 17.3132 30.8109 17.2488 30.855C17.2259 30.8731 17.2042 30.8928 17.1839 30.9139ZM16.7691 30.4387H16.6322C16.5862 30.4387 16.5423 30.4657 16.5553 30.5196C16.5624 30.5505 16.5566 30.5864 16.5509 30.622C16.5397 30.6911 16.5288 30.7588 16.6132 30.7851C16.723 30.8058 16.8359 30.802 16.944 30.7741C16.9658 30.7707 16.9866 30.7629 17.0052 30.751C17.0237 30.7392 17.0396 30.7236 17.0518 30.7053C17.064 30.687 17.0723 30.6664 17.0761 30.6447C17.0799 30.6231 17.0792 30.6008 17.0739 30.5795C17.0696 30.5388 17.0496 30.5013 17.018 30.4752C16.9864 30.4491 16.9459 30.4364 16.905 30.4397L16.7691 30.4387ZM20.7455 31.7007C20.7128 31.7011 20.6793 31.7016 20.6444 31.6995C20.6478 31.755 20.6682 31.8081 20.7029 31.8515C20.7376 31.8949 20.7849 31.9266 20.8383 31.9421C20.9682 31.9787 21.1036 31.9915 21.2381 31.98C21.5379 31.9391 21.6378 31.8123 21.6378 31.5129V30.7352C21.6378 30.5416 21.6368 30.5366 21.4459 30.5575C21.415 30.5629 21.3859 30.5891 21.3546 30.6172C21.3394 30.6308 21.3237 30.645 21.307 30.6574C21.312 30.6613 21.3 30.6544 21.29 30.6454C21.0362 30.4228 20.6944 30.5176 20.6065 30.845C20.578 30.9568 20.5709 31.073 20.5855 31.1874C20.6185 31.449 20.8163 31.6107 21.0572 31.5718C21.1557 31.5413 21.25 31.4987 21.338 31.445V31.5787C21.34 31.6167 21.3314 31.6545 21.3131 31.6878C21.2948 31.7212 21.2676 31.7488 21.2345 31.7675C21.2014 31.7863 21.1637 31.7955 21.1257 31.794C21.0877 31.7926 21.0508 31.7806 21.0192 31.7594C20.9291 31.6984 20.8411 31.6995 20.7455 31.7007ZM20.9213 31.1974C20.9073 31.1449 20.8967 31.0915 20.8893 31.0377C20.8987 30.9803 20.913 30.9239 20.9323 30.869C20.9486 30.8309 20.9769 30.7992 21.0131 30.7788C21.0492 30.7584 21.091 30.7504 21.1321 30.7562C21.1733 30.7553 21.2135 30.7687 21.2458 30.7942C21.2781 30.8198 21.3004 30.8557 21.309 30.8959C21.3264 30.995 21.3264 31.0963 21.309 31.1954C21.3001 31.239 21.2757 31.2778 21.2402 31.3047C21.2046 31.3315 21.1606 31.3445 21.1161 31.3412C21.0719 31.344 21.0281 31.3312 20.9924 31.3048C20.9568 31.2785 20.9316 31.2405 20.9213 31.1974ZM27.0737 30.6773C27.0836 30.6518 27.0986 30.6286 27.1178 30.6092C27.1371 30.5897 27.1601 30.5744 27.1855 30.5642C27.2109 30.554 27.2381 30.5492 27.2654 30.5499C27.2928 30.5506 27.3197 30.557 27.3445 30.5685C27.3538 30.5782 27.3611 30.5896 27.3659 30.6021C27.3708 30.6146 27.373 30.628 27.3725 30.6414V31.6297C27.3717 31.7026 27.3474 31.7734 27.3034 31.8316C27.2593 31.8898 27.1977 31.9324 27.1277 31.9531C26.9543 32.0159 26.7644 32.0159 26.591 31.9531C26.5363 31.936 26.4876 31.9036 26.4508 31.8597C26.4139 31.8158 26.3905 31.7623 26.3831 31.7055C26.4201 31.7076 26.4561 31.7049 26.4915 31.7021C26.574 31.6958 26.6537 31.6896 26.7369 31.7455C26.8122 31.7773 26.8961 31.7826 26.9748 31.7604C27.0567 31.7435 27.0747 31.6606 27.0747 31.5837V31.42C27.0611 31.4302 27.0498 31.4383 27.0401 31.4452L27.0399 31.4453L27.0399 31.4453L27.0398 31.4454C27.024 31.4566 27.0126 31.4647 27.0027 31.4739C26.9593 31.5165 26.9065 31.5482 26.8486 31.5666C26.7906 31.585 26.7292 31.5895 26.6692 31.5798C26.6091 31.5701 26.5523 31.5464 26.5031 31.5107C26.4539 31.4749 26.4139 31.4282 26.3861 31.3741C26.3355 31.281 26.3083 31.1771 26.3067 31.0712C26.3051 30.9654 26.3293 30.8607 26.3771 30.7662C26.402 30.7066 26.4413 30.6542 26.4913 30.6135C26.5414 30.5728 26.6008 30.545 26.6642 30.5328C26.7276 30.5205 26.7931 30.5241 26.8547 30.5433C26.9164 30.5624 26.9724 30.5964 27.0177 30.6424C27.0317 30.6494 27.0487 30.6584 27.0737 30.6773ZM26.636 31.0497C26.637 31.0811 26.64 31.1124 26.645 31.1435C26.6709 31.2713 26.7449 31.3432 26.8518 31.3432C26.9051 31.3444 26.9568 31.3252 26.9964 31.2895C27.0359 31.2539 27.0604 31.2045 27.0647 31.1515C27.0762 31.0898 27.0762 31.0265 27.0647 30.9648C27.0407 30.8251 26.9548 30.7502 26.8438 30.7582C26.7876 30.7652 26.7357 30.7923 26.6979 30.8345C26.66 30.8767 26.6387 30.9311 26.638 30.9878C26.635 31.002 26.6353 31.0179 26.6357 31.0338V31.0338L26.636 31.0497ZM13.6459 31.1215V30.7322L13.6529 30.7352V30.3988C13.6527 30.3715 13.6529 30.3476 13.6531 30.3268C13.6537 30.2569 13.654 30.2217 13.6365 30.2039C13.6188 30.1857 13.5827 30.1855 13.5099 30.1852C13.4868 30.1851 13.4601 30.1849 13.429 30.1842C13.3541 30.1792 13.3291 30.2061 13.3291 30.284V31.0317C13.3302 31.0735 13.3269 31.1154 13.3191 31.1565C13.3144 31.187 13.3034 31.2163 13.2869 31.2424C13.2704 31.2685 13.2486 31.2909 13.223 31.3082C13.1974 31.3256 13.1685 31.3374 13.1381 31.3431C13.1077 31.3488 13.0764 31.3481 13.0463 31.3412C13.0168 31.3443 12.987 31.3408 12.9591 31.331C12.9311 31.3211 12.9057 31.3052 12.8847 31.2844C12.8636 31.2636 12.8475 31.2384 12.8374 31.2105C12.8273 31.1827 12.8236 31.153 12.8264 31.1235C12.8174 30.886 12.8124 30.6474 12.8124 30.4098C12.8117 30.3731 12.812 30.3423 12.8123 30.3163C12.813 30.252 12.8134 30.218 12.7966 30.2001C12.7776 30.1799 12.7366 30.1804 12.6494 30.1816C12.6262 30.1819 12.5998 30.1822 12.5696 30.1822C12.5046 30.1812 12.4856 30.2101 12.4856 30.271C12.4856 30.3585 12.4851 30.446 12.4845 30.5336L12.4845 30.5337C12.4834 30.7091 12.4823 30.8846 12.4856 31.0597C12.4906 31.3531 12.6285 31.5408 12.8854 31.5887C13.0087 31.6107 13.1349 31.6107 13.2581 31.5887C13.3694 31.5732 13.4709 31.5166 13.5427 31.4302C13.6144 31.3438 13.6512 31.2337 13.6459 31.1215ZM26.245 31.5748C26.1452 31.5807 26.045 31.5807 25.9452 31.5748C25.9142 31.5748 25.8802 31.5179 25.8662 31.4809C25.8558 31.4535 25.8481 31.4305 25.8416 31.4111C25.8275 31.3692 25.8192 31.3443 25.8021 31.3297C25.7774 31.3085 25.7343 31.3087 25.6288 31.3092H25.6288L25.6244 31.3092H25.5504C25.4408 31.3092 25.3859 31.3092 25.3476 31.3345C25.309 31.3599 25.2873 31.4108 25.2438 31.5131L25.2426 31.5159C25.2316 31.5408 25.2037 31.5738 25.1807 31.5758C25.1207 31.5803 25.06 31.5789 24.9934 31.5774H24.9933C24.9578 31.5766 24.9205 31.5758 24.8809 31.5758C24.9178 31.4689 24.9488 31.3811 24.9808 31.2932L25.079 31.0205L25.079 31.0204L25.0791 31.0203L25.0791 31.0201L25.0791 31.02L25.0792 31.0199L25.0792 31.0198L25.0793 31.0196L25.0793 31.0195L25.0794 31.0194L25.0794 31.0193L25.0795 31.0191L25.0795 31.019L25.0796 31.0189C25.1688 30.7712 25.258 30.5237 25.3456 30.275C25.351 30.246 25.3674 30.2201 25.3914 30.2028C25.4154 30.1855 25.4452 30.1781 25.4745 30.1822C25.5389 30.1844 25.5882 30.1838 25.6266 30.1833C25.6936 30.1824 25.7273 30.182 25.7496 30.1978C25.7722 30.2138 25.7829 30.2466 25.8046 30.3127C25.8158 30.3469 25.83 30.3902 25.8503 30.4447C25.9377 30.6798 26.0235 30.926 26.1089 31.171L26.109 31.1711L26.1096 31.1728C26.1411 31.2633 26.1726 31.3535 26.204 31.443C26.2153 31.4721 26.2237 31.5013 26.2339 31.5367L26.2339 31.5368L26.2339 31.5368L26.245 31.5748ZM25.5744 30.5436H25.5385L25.3845 31.0427H25.7333C25.6771 30.8653 25.6267 30.7075 25.5764 30.5498L25.576 30.5486L25.5757 30.5475L25.5754 30.5467L25.5744 30.5436ZM9.85691 30.5406C9.77707 30.5718 9.70071 30.6113 9.62905 30.6583C9.62905 30.6583 9.61906 30.6514 9.62206 30.6404C9.61706 30.5526 9.61706 30.4647 9.61706 30.3779V30.3778C9.61706 30.3499 9.61759 30.3259 9.61803 30.3054C9.61935 30.2453 9.62003 30.2145 9.60498 30.1985C9.58921 30.1817 9.55617 30.1811 9.48849 30.1799C9.46804 30.1795 9.44444 30.1791 9.41719 30.1782C9.32125 30.1752 9.29926 30.2101 9.29926 30.3V31.3631C9.29939 31.3944 9.29887 31.4211 9.29842 31.4437C9.29718 31.5069 9.29655 31.5392 9.31237 31.5559C9.32893 31.5733 9.36351 31.5737 9.43427 31.5744H9.4343H9.43432H9.43433H9.43435H9.43437C9.45655 31.5746 9.48228 31.5749 9.51213 31.5757C9.59907 31.5777 9.61806 31.5438 9.61806 31.4639C9.61473 31.3588 9.61584 31.2536 9.61695 31.1485C9.6175 31.0959 9.61806 31.0433 9.61806 30.9908C9.61806 30.9385 9.62895 30.8868 9.65004 30.839C9.66678 30.8055 9.69472 30.7789 9.72903 30.7638C9.76333 30.7486 9.80185 30.7459 9.83792 30.7562C9.86998 30.7599 9.89946 30.7755 9.92056 30.7999C9.94165 30.8243 9.95282 30.8557 9.95185 30.8879C9.9537 30.9312 9.95583 30.9745 9.95796 31.0179C9.96389 31.1387 9.96984 31.2599 9.96984 31.3811C9.96984 31.4043 9.96953 31.4247 9.96925 31.4427C9.96827 31.5068 9.96777 31.5393 9.98379 31.556C10.0003 31.5731 10.0344 31.5734 10.1035 31.5739C10.1227 31.574 10.1447 31.5742 10.1697 31.5747C10.2457 31.5797 10.2697 31.5518 10.2697 31.4749V30.854C10.2667 30.6044 10.0958 30.4717 9.85691 30.5406ZM14.2874 8.86948C14.3059 8.91918 14.3114 8.97277 14.3033 9.02517C14.2953 9.07758 14.274 9.12707 14.2414 9.16895C14.1467 9.30409 14.0447 9.43472 13.9425 9.5655L13.9425 9.5655L13.9425 9.56551C13.9088 9.60861 13.8751 9.65173 13.8417 9.69503C13.7138 9.84445 13.558 9.96753 13.383 10.0574C13.1577 10.1747 12.9582 10.3359 12.7964 10.5316C12.7504 10.4537 12.7474 10.4367 12.7964 10.297C12.8896 9.99994 13.0695 9.7375 13.313 9.5433C13.5116 9.38345 13.7218 9.23895 13.9321 9.09438L13.9322 9.09436L13.9322 9.09435L13.9322 9.09435L13.9322 9.09434L13.9322 9.09433L13.9322 9.09432L13.9322 9.09431L13.9322 9.09431L13.9322 9.0943L13.9323 9.09429L13.9323 9.09428C14.0109 9.04025 14.0895 8.98622 14.1675 8.93137C14.2059 8.9078 14.246 8.88711 14.2874 8.86948ZM25.3861 8.90042C25.3535 8.88667 25.3202 8.875 25.2861 8.86548C25.295 8.95311 25.3148 9.0393 25.3451 9.12203C25.5052 9.43958 25.738 9.71491 26.0247 9.92562C26.1079 9.98675 26.1956 10.042 26.2835 10.0973L26.2835 10.0974C26.4783 10.2201 26.674 10.3434 26.8242 10.5326C26.8367 10.4847 26.8401 10.4349 26.8342 10.3858C26.7821 10.1483 26.6671 9.92902 26.5014 9.75093C26.1856 9.38956 25.7958 9.13401 25.3861 8.90042ZM30.9355 30.5585C31.0267 30.5518 31.1182 30.5518 31.2094 30.5585C31.2404 30.5585 31.2763 30.6144 31.2883 30.6513C31.3255 30.7727 31.3584 30.8959 31.3914 31.0191L31.4202 31.1265C31.4303 31.1684 31.4506 31.2071 31.4792 31.2393C31.4947 31.2089 31.5084 31.1775 31.5202 31.1455C31.5322 31.1034 31.5446 31.0613 31.557 31.0191L31.557 31.019C31.5932 30.8962 31.6296 30.7727 31.6571 30.6464C31.6585 30.6308 31.6631 30.6156 31.6708 30.6019C31.6784 30.5883 31.6888 30.5763 31.7013 30.5669C31.7139 30.5575 31.7282 30.5508 31.7435 30.5473C31.7588 30.5438 31.7746 30.5435 31.79 30.5465H31.9999C31.9973 30.5769 31.992 30.607 31.9839 30.6364C31.8506 31.0057 31.7174 31.3747 31.5841 31.7434C31.4889 31.9928 31.4172 31.9917 31.196 31.9885L31.1624 31.988C31.0895 31.988 31.093 31.9347 31.0961 31.8881L31.0964 31.8822C31.0971 31.8723 31.0964 31.8616 31.0957 31.8508C31.0929 31.8089 31.09 31.7643 31.1614 31.7524C31.3313 31.7245 31.3553 31.6815 31.2953 31.5178C31.2144 31.2999 31.1316 31.0825 31.0489 30.8652L31.0488 30.865L30.9755 30.6723C30.9652 30.6525 30.9567 30.6257 30.9452 30.5889L30.9452 30.5888L30.9452 30.5888L30.9355 30.5585ZM11.3856 31.3274L11.3856 31.3274C11.3912 31.3133 11.3977 31.2968 11.4065 31.2763C11.3655 31.2811 11.3264 31.2803 11.2887 31.2796C11.2005 31.2778 11.1202 31.2762 11.0418 31.3462C11.0162 31.3656 10.9863 31.3785 10.9546 31.384C10.923 31.3894 10.8904 31.3871 10.8598 31.3773C10.8293 31.3675 10.8015 31.3505 10.7789 31.3277C10.7563 31.3049 10.7395 31.277 10.73 31.2463C10.708 31.1675 10.721 31.1325 10.8149 31.1325H11.3406C11.3945 31.1335 11.4275 31.1196 11.4275 31.0577C11.4379 30.935 11.4025 30.8128 11.3282 30.7146C11.2538 30.6163 11.1458 30.549 11.0248 30.5256C10.737 30.4787 10.4841 30.6154 10.4251 30.878C10.4022 30.9935 10.4001 31.1122 10.4191 31.2284C10.4347 31.321 10.4791 31.4064 10.546 31.4723C10.6129 31.5383 10.699 31.5815 10.7919 31.5957C11.0388 31.6386 11.2646 31.5538 11.3646 31.3761C11.3721 31.3616 11.3779 31.3468 11.3856 31.3274ZM11.1207 30.9578H10.721C10.7145 30.9179 10.7203 30.877 10.7376 30.8405C10.7549 30.8039 10.7829 30.7735 10.8179 30.7532C10.8501 30.731 10.8882 30.7192 10.9273 30.7192C10.9664 30.7192 11.0046 30.731 11.0368 30.7532C11.0715 30.7732 11.0985 30.8041 11.1137 30.8412C11.1289 30.8782 11.1314 30.9193 11.1207 30.9578ZM18.5566 31.2853C18.5331 31.3707 18.4835 31.4468 18.4147 31.5028C18.346 31.5588 18.2614 31.5919 18.1729 31.5977C17.7051 31.6366 17.4293 31.2573 17.6072 30.8191C17.6951 30.6054 17.862 30.5106 18.1329 30.5196C18.2302 30.5225 18.3241 30.556 18.4013 30.6153C18.4784 30.6747 18.5349 30.7568 18.5626 30.85C18.6466 31.1026 18.6266 31.1325 18.3627 31.1325H17.963C17.888 31.1325 17.872 31.1635 17.89 31.2323C17.8958 31.2649 17.9096 31.2955 17.9302 31.3215C17.9508 31.3474 17.9775 31.3678 18.0079 31.3808C18.0383 31.3939 18.0715 31.3992 18.1045 31.3963C18.1375 31.3934 18.1692 31.3823 18.1968 31.3641C18.3657 31.2683 18.3657 31.2683 18.5566 31.2853ZM17.891 30.9628H18.2328C18.2908 30.9628 18.3038 30.9349 18.2928 30.882C18.2822 30.8317 18.2534 30.787 18.2119 30.7566C18.1704 30.7262 18.1191 30.7122 18.0679 30.7173C17.95 30.7312 17.884 30.8171 17.891 30.9628ZM23.3752 31.3551C23.2893 31.3332 23.2713 31.2403 23.2893 31.1335L23.4042 31.1275C23.4611 31.1275 23.5174 31.1282 23.5734 31.1289L23.5737 31.1289H23.5737H23.5738H23.5738H23.5738H23.5738H23.5738C23.6848 31.1302 23.7944 31.1315 23.9039 31.1275C23.9339 31.1265 23.9888 31.0876 23.9888 31.0676C23.9778 30.6693 23.728 30.4477 23.3282 30.5326C23.0104 30.6034 22.9115 30.8999 22.9755 31.2313C22.9885 31.3212 23.0303 31.4045 23.0946 31.4687C23.1589 31.5329 23.2423 31.5747 23.3322 31.5877C23.5321 31.6237 23.727 31.6067 23.8739 31.439C23.9111 31.3879 23.9445 31.3342 23.9738 31.2783C23.9306 31.2821 23.8904 31.2805 23.8523 31.2789C23.7628 31.2753 23.6852 31.2721 23.6081 31.3421C23.5723 31.3604 23.5331 31.3709 23.493 31.3732C23.4529 31.3754 23.4128 31.3693 23.3752 31.3551ZM23.3183 30.9618C23.305 30.9598 23.2922 30.9558 23.2803 30.9498L23.2793 30.9478C23.2688 30.8949 23.2798 30.84 23.3099 30.7951C23.34 30.7503 23.3867 30.7192 23.4397 30.7088C23.4927 30.6983 23.5477 30.7093 23.5926 30.7394C23.6375 30.7694 23.6686 30.816 23.679 30.869C23.692 30.9269 23.686 30.9618 23.6121 30.9618H23.3183ZM22.1459 31.1335C22.1319 31.2463 22.1539 31.3332 22.2459 31.3691C22.2886 31.3831 22.3342 31.3865 22.3786 31.379C22.423 31.3716 22.4649 31.3534 22.5007 31.3262C22.5933 31.2896 22.6911 31.2677 22.7905 31.2613L22.8105 31.2972C22.7913 31.3433 22.7672 31.3871 22.7386 31.428C22.5936 31.6027 22.3958 31.6276 22.1919 31.5887C22.1035 31.5778 22.021 31.5385 21.9569 31.4767C21.8927 31.415 21.8504 31.3341 21.8361 31.2463C21.8111 31.1268 21.8111 31.0034 21.8361 30.8839C21.8971 30.6124 22.1359 30.4767 22.4257 30.5236C22.5479 30.5448 22.6577 30.6106 22.734 30.7082C22.8103 30.8058 22.8475 30.9282 22.8385 31.0517C22.8385 31.1295 22.7945 31.1345 22.7386 31.1335H22.1459ZM22.1339 30.9628H22.4537C22.5577 30.9628 22.5537 30.9189 22.5307 30.85C22.5154 30.8067 22.4861 30.7698 22.4473 30.7451C22.4085 30.7205 22.3625 30.7096 22.3168 30.7142C22.2049 30.7302 22.1399 30.8111 22.1339 30.9628ZM27.9664 31.3531C27.8885 31.3232 27.8655 31.2334 27.8885 31.1335L28.0243 31.1333C28.1801 31.133 28.3323 31.1326 28.4851 31.1365C28.551 31.1375 28.579 31.1166 28.579 31.0457C28.5839 30.9645 28.569 30.8832 28.5356 30.809C28.5022 30.7348 28.4513 30.6697 28.3873 30.6194C28.3233 30.5691 28.248 30.535 28.1679 30.5201C28.0878 30.5051 28.0053 30.5097 27.9274 30.5336C27.6776 30.5975 27.5557 30.7841 27.5557 31.0836C27.5557 31.2793 27.6156 31.448 27.7975 31.5408C27.8878 31.5894 27.9894 31.613 28.0918 31.6091C28.1943 31.6053 28.2938 31.5741 28.3801 31.5189C28.4238 31.4943 28.4616 31.4605 28.4908 31.4198C28.52 31.3791 28.5398 31.3325 28.549 31.2833C28.5163 31.2847 28.4844 31.2834 28.4535 31.282C28.3589 31.2779 28.2723 31.2742 28.1903 31.3531C28.1493 31.3901 28.0444 31.3831 27.9664 31.3531ZM28.2652 30.9548H27.8745V30.9578C27.8694 30.9268 27.8715 30.895 27.8805 30.8648C27.8894 30.8347 27.9052 30.8069 27.9264 30.7837C27.9476 30.7604 27.9739 30.7423 28.0031 30.7306C28.0324 30.719 28.0639 30.714 28.0953 30.7163C28.1232 30.7184 28.1503 30.7267 28.1746 30.7404C28.1989 30.7542 28.22 30.7731 28.2362 30.7958C28.2524 30.8186 28.2634 30.8446 28.2684 30.8721C28.2734 30.8996 28.2723 30.9278 28.2652 30.9548ZM29.0657 30.6583C29.1431 30.6074 29.2268 30.5665 29.3145 30.5366C29.5584 30.4866 29.7143 30.5954 29.7143 30.8031L29.7174 30.9478C29.7216 31.1337 29.7257 31.3187 29.7273 31.5019C29.7273 31.5218 29.7083 31.5588 29.6963 31.5598C29.6128 31.5663 29.5289 31.5663 29.4454 31.5598C29.4314 31.5598 29.4135 31.5029 29.4125 31.4719V30.9888C29.4132 30.9502 29.4098 30.9118 29.4025 30.874C29.3989 30.8404 29.3832 30.8093 29.3584 30.7863C29.3336 30.7634 29.3013 30.7502 29.2675 30.7492C29.2309 30.7427 29.1932 30.7491 29.1607 30.7673C29.1283 30.7855 29.1032 30.8144 29.0897 30.849C29.0703 30.9011 29.0599 30.9561 29.0587 31.0117V31.411C29.0587 31.5657 29.0587 31.5658 28.9058 31.5658C28.8293 31.5658 28.7918 31.5658 28.7735 31.547C28.7558 31.529 28.7558 31.4937 28.7559 31.4245V31.4245L28.7559 31.416V30.6693C28.7559 30.5695 28.7898 30.5346 28.8838 30.5465C28.8977 30.5485 28.9118 30.5485 28.9258 30.5465C29.0077 30.5475 29.0737 30.5585 29.0657 30.6583ZM20.0549 31.458L20.0924 31.426C20.0724 31.5777 20.1484 31.5857 20.2363 31.5717C20.2606 31.5697 20.285 31.5697 20.3093 31.5717C20.3673 31.5757 20.3922 31.5518 20.3922 31.4929C20.3922 31.3972 20.3929 31.3015 20.3936 31.2058L20.3936 31.2054C20.3949 31.0137 20.3962 30.822 20.3922 30.6304C20.3922 30.6044 20.3453 30.5655 20.3193 30.5565C20.3021 30.5506 20.2793 30.5525 20.2556 30.5545C20.2435 30.5555 20.2312 30.5565 20.2194 30.5565C20.1194 30.5435 20.0954 30.5895 20.0954 30.6833C20.0989 30.8582 20.0929 31.0331 20.0774 31.2074C20.0664 31.3282 19.9995 31.3711 19.8846 31.3631C19.7906 31.3571 19.7446 31.3152 19.7446 31.1784V30.7681C19.744 30.729 19.7452 30.6971 19.7461 30.6711V30.6711C19.748 30.6225 19.749 30.5944 19.7357 30.5781C19.7172 30.5558 19.6714 30.5559 19.5625 30.5564L19.5088 30.5565C19.4518 30.5565 19.4268 30.5795 19.4268 30.6384C19.4268 30.7096 19.4258 30.7808 19.4249 30.852C19.4229 30.9944 19.4209 31.1368 19.4268 31.2792C19.4205 31.3394 19.4337 31.4 19.4645 31.4521C19.4953 31.5043 19.542 31.5451 19.5977 31.5687C19.6632 31.5978 19.7357 31.6076 19.8065 31.5968C19.8774 31.586 19.9437 31.5551 19.9975 31.5078C20.0136 31.4931 20.0298 31.4794 20.0549 31.458ZM30.8814 31.2224C30.8789 31.2832 30.8612 31.3424 30.83 31.3947C30.7987 31.447 30.7549 31.4907 30.7026 31.5219C30.6208 31.5746 30.5264 31.6047 30.4291 31.6091C30.3318 31.6135 30.2351 31.592 30.1489 31.5468C30.0696 31.5073 30.0035 31.4456 29.9588 31.3692C29.9141 31.2928 29.8926 31.205 29.8971 31.1166C29.8881 30.7931 30.008 30.5965 30.2668 30.5356C30.3396 30.5147 30.4159 30.5086 30.4911 30.5177C30.5663 30.5268 30.6389 30.5508 30.7046 30.5885C30.7573 30.6195 30.8016 30.6631 30.8335 30.7154C30.8654 30.7676 30.8839 30.8269 30.8874 30.888C30.8477 30.8822 30.8077 30.8862 30.7684 30.8901C30.6793 30.899 30.594 30.9075 30.5247 30.8001C30.4647 30.7083 30.3018 30.7442 30.2548 30.854C30.2265 30.9184 30.2113 30.9877 30.2101 31.058C30.2089 31.1282 30.2217 31.198 30.2478 31.2633C30.2928 31.3791 30.4617 31.418 30.5237 31.3212C30.5887 31.2181 30.6711 31.2195 30.7611 31.221C30.7721 31.2212 30.7833 31.2214 30.7945 31.2214C30.8157 31.2175 30.8369 31.2191 30.861 31.2209L30.8814 31.2224ZM18.7836 30.848V31.1635L18.7846 31.1625V31.3831C18.7856 31.4896 18.7796 31.5363 18.8001 31.5572C18.8206 31.5783 18.8678 31.5732 18.9755 31.5767C19.0644 31.5797 19.0884 31.5468 19.0884 31.4619V30.863C19.0884 30.8081 19.0984 30.7472 19.1664 30.7552C19.2343 30.7632 19.2593 30.7292 19.2593 30.6633C19.2593 30.5975 19.2433 30.5735 19.1684 30.5795C19.0934 30.5855 19.0734 30.5356 19.1004 30.4797C19.1194 30.4347 19.1553 30.3988 19.2003 30.3798C19.2737 30.3574 19.2651 30.3075 19.2575 30.2634C19.2563 30.2565 19.2551 30.2496 19.2543 30.2431C19.2495 30.2256 19.2404 30.2096 19.2278 30.1965C19.2153 30.1834 19.1996 30.1737 19.1824 30.1682C18.9615 30.1582 18.7626 30.2091 18.7826 30.4837C18.7866 30.5406 18.7636 30.5745 18.6947 30.5835C18.6707 30.5865 18.6377 30.6394 18.6377 30.6683C18.6405 30.6859 18.6478 30.7024 18.6588 30.7164C18.6698 30.7304 18.6842 30.7413 18.7007 30.7482C18.7666 30.7592 18.7836 30.7921 18.7836 30.848Z" fill="white"/>
</svg>
