<svg width="105" height="21" viewBox="0 0 105 21" fill="none" xmlns="http://www.w3.org/2000/svg">
<path d="M27.6797 15.2701V7.23414H24.6137V5.66614H32.5797V7.23414H29.4997V15.2701H27.6797ZM33.9956 15.2701V5.66614H39.0496C39.759 5.66614 40.347 5.78747 40.8136 6.03014C41.2803 6.27281 41.6303 6.61814 41.8636 7.06614C42.097 7.51414 42.2136 8.04147 42.2136 8.64814C42.2136 9.27347 42.0736 9.82881 41.7936 10.3141C41.5136 10.7901 41.103 11.1495 40.5616 11.3921L42.5496 15.2701H40.5616L38.7976 11.7001H35.8156V15.2701H33.9956ZM35.8156 10.1741H38.9096C39.3763 10.1741 39.7356 10.0388 39.9876 9.76814C40.2396 9.49747 40.3656 9.12414 40.3656 8.64814C40.3656 8.34014 40.3096 8.08347 40.1976 7.87814C40.0856 7.66347 39.9223 7.50014 39.7076 7.38814C39.493 7.27614 39.227 7.22014 38.9096 7.22014H35.8156V10.1741ZM48.1904 15.4381C47.2104 15.4381 46.3704 15.2655 45.6704 14.9201C44.9798 14.5748 44.4478 14.0381 44.0744 13.3101C43.7104 12.5728 43.5284 11.6255 43.5284 10.4681C43.5284 8.77881 43.9391 7.52814 44.7604 6.71614C45.5818 5.90414 46.7251 5.49814 48.1904 5.49814C48.9838 5.49814 49.6978 5.63347 50.3324 5.90414C50.9764 6.17481 51.4851 6.58547 51.8584 7.13614C52.2411 7.67747 52.4324 8.36814 52.4324 9.20814H50.5704C50.5704 8.74147 50.4678 8.34947 50.2624 8.03214C50.0664 7.70547 49.7911 7.45814 49.4364 7.29014C49.0818 7.12214 48.6758 7.03814 48.2184 7.03814C47.5838 7.03814 47.0564 7.16414 46.6364 7.41614C46.2164 7.65881 45.9038 8.02281 45.6984 8.50814C45.5024 8.99347 45.4044 9.59547 45.4044 10.3141V10.6221C45.4044 11.3501 45.5024 11.9568 45.6984 12.4421C45.9038 12.9275 46.2118 13.2915 46.6224 13.5341C47.0424 13.7768 47.5744 13.8981 48.2184 13.8981C48.7038 13.8981 49.1284 13.8188 49.4924 13.6601C49.8564 13.4921 50.1364 13.2495 50.3324 12.9321C50.5378 12.6055 50.6404 12.2088 50.6404 11.7421H52.4324C52.4324 12.5821 52.2458 13.2775 51.8724 13.8281C51.4991 14.3695 50.9904 14.7755 50.3464 15.0461C49.7118 15.3075 48.9931 15.4381 48.1904 15.4381ZM53.7023 15.2701V14.8081C53.7023 14.3881 53.7769 14.0055 53.9263 13.6601C54.0756 13.3148 54.2763 13.0021 54.5283 12.7221C54.7803 12.4328 55.0603 12.1621 55.3683 11.9101C55.6856 11.6488 56.0029 11.4015 56.3203 11.1681C56.7123 10.8788 57.0809 10.5895 57.4263 10.3001C57.7716 10.0015 58.0516 9.68414 58.2663 9.34814C58.4809 9.00281 58.5883 8.62014 58.5883 8.20014C58.5883 8.00414 58.5416 7.80814 58.4483 7.61214C58.3549 7.41614 58.2009 7.25281 57.9863 7.12214C57.7809 6.99147 57.5009 6.92614 57.1463 6.92614C56.7916 6.92614 56.4976 6.98681 56.2643 7.10814C56.0309 7.22014 55.8536 7.38347 55.7323 7.59814C55.6203 7.81281 55.5643 8.07881 55.5643 8.39614V8.97014H53.8563C53.8469 8.92347 53.8376 8.85347 53.8283 8.76014C53.8189 8.66681 53.8143 8.55014 53.8143 8.41014C53.8143 7.71947 53.9683 7.16414 54.2763 6.74414C54.5936 6.31481 55.0089 6.00214 55.5223 5.80614C56.0449 5.60081 56.6096 5.49814 57.2163 5.49814C57.8509 5.49814 58.3689 5.59147 58.7703 5.77814C59.1809 5.96481 59.4983 6.20281 59.7223 6.49214C59.9556 6.78147 60.1143 7.08947 60.1983 7.41614C60.2916 7.74281 60.3383 8.04147 60.3383 8.31214C60.3383 8.76014 60.2589 9.17081 60.1003 9.54414C59.9509 9.90814 59.7409 10.2535 59.4703 10.5801C59.1996 10.8975 58.8776 11.2055 58.5043 11.5041C58.1403 11.7935 57.7483 12.0875 57.3283 12.3861C57.1136 12.5355 56.9036 12.6848 56.6983 12.8341C56.4929 12.9835 56.3109 13.1328 56.1523 13.2821C56.0029 13.4315 55.8863 13.5808 55.8023 13.7301H60.3943V15.2701H53.7023ZM65.0867 15.4381C64.564 15.4381 64.0974 15.3635 63.6867 15.2141C63.276 15.0555 62.926 14.7895 62.6367 14.4161C62.3474 14.0428 62.128 13.5388 61.9787 12.9041C61.8294 12.2601 61.7547 11.4481 61.7547 10.4681C61.7547 9.48814 61.8294 8.68081 61.9787 8.04614C62.128 7.40214 62.3474 6.89347 62.6367 6.52014C62.926 6.14681 63.276 5.88547 63.6867 5.73614C64.0974 5.57747 64.564 5.49814 65.0867 5.49814C65.6094 5.49814 66.0714 5.57747 66.4727 5.73614C66.8834 5.88547 67.2334 6.14681 67.5227 6.52014C67.812 6.89347 68.0314 7.40214 68.1807 8.04614C68.33 8.68081 68.4047 9.48814 68.4047 10.4681C68.4047 11.4481 68.33 12.2601 68.1807 12.9041C68.0314 13.5388 67.812 14.0428 67.5227 14.4161C67.2334 14.7895 66.8834 15.0555 66.4727 15.2141C66.0714 15.3635 65.6094 15.4381 65.0867 15.4381ZM65.0867 14.0381C65.5254 14.0381 65.852 13.9215 66.0667 13.6881C66.2907 13.4455 66.44 13.0908 66.5147 12.6241C66.5987 12.1481 66.6407 11.5601 66.6407 10.8601V10.1321C66.6407 9.41347 66.5987 8.81614 66.5147 8.34014C66.44 7.85481 66.2907 7.49547 66.0667 7.26214C65.852 7.01947 65.5254 6.89814 65.0867 6.89814C64.6574 6.89814 64.326 7.01947 64.0927 7.26214C63.8687 7.49547 63.7147 7.85014 63.6307 8.32614C63.556 8.79281 63.5187 9.38081 63.5187 10.0901V10.8181C63.5187 11.5275 63.556 12.1248 63.6307 12.6101C63.7147 13.0861 63.8687 13.4455 64.0927 13.6881C64.326 13.9215 64.6574 14.0381 65.0867 14.0381Z" fill="#282B3A"/>
<path d="M76.4012 15.4141C75.7052 15.4141 75.1052 15.3021 74.6012 15.0781C74.0972 14.8541 73.7092 14.5021 73.4372 14.0221C73.1732 13.5341 73.0412 12.9101 73.0412 12.1501V7.03814H74.1812V12.2701C74.1812 12.9901 74.3732 13.5301 74.7572 13.8901C75.1492 14.2501 75.6972 14.4301 76.4012 14.4301C77.1132 14.4301 77.6692 14.2501 78.0692 13.8901C78.4692 13.5301 78.6692 12.9901 78.6692 12.2701V7.03814H79.7972V12.1501C79.7972 12.9101 79.6612 13.5341 79.3892 14.0221C79.1172 14.5021 78.7252 14.8541 78.2132 15.0781C77.7092 15.3021 77.1052 15.4141 76.4012 15.4141ZM84.8665 15.4141C84.4185 15.4141 83.9865 15.3701 83.5705 15.2821C83.1625 15.1941 82.7985 15.0541 82.4785 14.8621C82.1585 14.6621 81.9025 14.4061 81.7105 14.0941C81.5265 13.7821 81.4345 13.3981 81.4345 12.9421C81.4345 12.9021 81.4345 12.8621 81.4345 12.8221C81.4425 12.7821 81.4465 12.7421 81.4465 12.7021H82.5985C82.5985 12.7261 82.5945 12.7661 82.5865 12.8221C82.5865 12.8701 82.5865 12.9141 82.5865 12.9541C82.5865 13.2741 82.6825 13.5461 82.8745 13.7701C83.0665 13.9941 83.3305 14.1621 83.6665 14.2741C84.0105 14.3781 84.3985 14.4301 84.8305 14.4301C85.0225 14.4301 85.2225 14.4181 85.4305 14.3941C85.6465 14.3701 85.8505 14.3301 86.0425 14.2741C86.2425 14.2101 86.4185 14.1301 86.5705 14.0341C86.7305 13.9301 86.8545 13.8061 86.9425 13.6621C87.0385 13.5101 87.0865 13.3261 87.0865 13.1101C87.0865 12.8381 87.0065 12.6141 86.8465 12.4381C86.6945 12.2541 86.4905 12.1061 86.2345 11.9941C85.9785 11.8741 85.6865 11.7701 85.3585 11.6821C85.0385 11.5861 84.7065 11.4941 84.3625 11.4061C84.0185 11.3181 83.6825 11.2181 83.3545 11.1061C83.0345 10.9861 82.7465 10.8421 82.4905 10.6741C82.2345 10.4981 82.0265 10.2821 81.8665 10.0261C81.7145 9.77014 81.6385 9.45814 81.6385 9.09014C81.6385 8.74614 81.7065 8.43814 81.8425 8.16614C81.9865 7.89414 82.1945 7.66614 82.4665 7.48214C82.7465 7.29014 83.0905 7.14614 83.4985 7.05014C83.9065 6.94614 84.3745 6.89414 84.9025 6.89414C85.3345 6.89414 85.7345 6.94214 86.1025 7.03814C86.4785 7.12614 86.8065 7.26614 87.0865 7.45814C87.3745 7.64214 87.5985 7.87814 87.7585 8.16614C87.9185 8.45414 87.9985 8.80214 87.9985 9.21014V9.35414H86.8705V9.17414C86.8705 8.90214 86.7865 8.67014 86.6185 8.47814C86.4505 8.28614 86.2185 8.13814 85.9225 8.03414C85.6345 7.93014 85.3065 7.87814 84.9385 7.87814C84.4585 7.87814 84.0585 7.92614 83.7385 8.02214C83.4185 8.11014 83.1785 8.24214 83.0185 8.41814C82.8665 8.58614 82.7905 8.77814 82.7905 8.99414C82.7905 9.24214 82.8665 9.45014 83.0185 9.61814C83.1785 9.78614 83.3865 9.92614 83.6425 10.0381C83.8985 10.1421 84.1905 10.2381 84.5185 10.3261C84.8465 10.4141 85.1785 10.5061 85.5145 10.6021C85.8585 10.6901 86.1905 10.7941 86.5105 10.9141C86.8385 11.0261 87.1305 11.1701 87.3865 11.3461C87.6505 11.5141 87.8585 11.7301 88.0105 11.9941C88.1625 12.2501 88.2385 12.5661 88.2385 12.9421C88.2385 13.5261 88.0945 14.0021 87.8065 14.3701C87.5185 14.7301 87.1225 14.9941 86.6185 15.1621C86.1145 15.3301 85.5305 15.4141 84.8665 15.4141ZM89.9168 15.2701V7.03814H92.9888C93.8528 7.03814 94.5888 7.18214 95.1968 7.47014C95.8048 7.75814 96.2688 8.20614 96.5888 8.81414C96.9168 9.41414 97.0808 10.1941 97.0808 11.1541C97.0808 12.0981 96.9168 12.8741 96.5888 13.4821C96.2688 14.0901 95.8048 14.5421 95.1968 14.8381C94.5888 15.1261 93.8528 15.2701 92.9888 15.2701H89.9168ZM91.0568 14.2861H92.9648C93.4208 14.2861 93.8288 14.2301 94.1888 14.1181C94.5488 13.9981 94.8568 13.8181 95.1128 13.5781C95.3688 13.3381 95.5608 13.0301 95.6888 12.6541C95.8248 12.2701 95.8928 11.8141 95.8928 11.2861V11.0461C95.8928 10.5021 95.8248 10.0421 95.6888 9.66614C95.5608 9.28214 95.3688 8.97014 95.1128 8.73014C94.8648 8.49014 94.5608 8.31414 94.2008 8.20214C93.8408 8.08214 93.4288 8.02214 92.9648 8.02214H91.0568V14.2861ZM100.464 15.2701V8.03414H97.644V7.03814H104.448V8.03414H101.604V15.2701H100.464Z" fill="#282B3A" fill-opacity="0.5"/>
<path d="M18.5294 6.82999C17.6029 5.97455 16.3213 4.66823 15.2775 3.74176L15.2157 3.69852C15.113 3.616 14.9971 3.55128 14.8729 3.50705C12.356 3.03764 0.642353 0.848079 0.413824 0.875873C0.349788 0.884841 0.28858 0.908058 0.234706 0.943814L0.176029 0.990137C0.103778 1.06351 0.0489025 1.15216 0.0154412 1.24955L0 1.2897V1.50896V1.54293C1.31868 5.21484 6.52544 17.2435 7.55074 20.0662C7.6125 20.2576 7.72985 20.622 7.94912 20.6406H7.99853C8.11588 20.6406 8.61618 19.9797 8.61618 19.9797C8.61618 19.9797 17.5597 9.13381 18.4646 7.97881C18.5817 7.83654 18.6851 7.68351 18.7734 7.52175C18.7959 7.3952 18.7853 7.26496 18.7425 7.14373C18.6998 7.0225 18.6264 6.91441 18.5294 6.82999ZM10.9107 8.09308L14.7278 4.92764L16.9668 6.99058L10.9107 8.09308ZM9.42838 7.88617L2.85662 2.50028L13.4894 4.46131L9.42838 7.88617ZM10.0213 9.29749L16.7475 8.21352L9.05779 17.4782L10.0213 9.29749ZM1.96412 3.03764L8.87868 8.90528L7.87809 17.4844L1.96412 3.03764Z" fill="#FF060A"/>
</svg>
